<svg width="120" height="131" viewBox="0 0 120 131" fill="none" xmlns="http://www.w3.org/2000/svg">
<path d="M60.4752 130.458C57.5916 130.458 54.7756 129.585 52.3976 127.954C50.0196 126.323 48.191 124.01 47.1522 121.32H9.20024C7.99288 121.328 6.79651 121.09 5.68425 120.621C4.57198 120.151 3.56718 119.459 2.73124 118.588C1.85983 117.752 1.16818 116.747 0.698603 115.634C0.229024 114.522 -0.00861037 113.325 0.000238334 112.117C2.32954 110.167 4.51583 108.052 6.54224 105.788C8.83892 103.118 10.8846 100.243 12.6532 97.1972C14.8043 93.58 16.5981 89.762 18.0092 85.7972C19.6543 80.9795 20.8593 76.0225 21.6092 70.9872C22.5705 64.8031 23.0386 58.5524 23.0092 52.2942C23.0069 48.6761 23.7206 45.0932 25.1092 41.7522C26.6461 38.1648 28.7792 34.8635 31.4182 31.9882C34.173 28.9033 37.4685 26.3479 41.1422 24.4482C45.0178 22.4913 49.1905 21.1894 53.4912 20.5952C53.1137 19.7099 52.9182 18.7576 52.9162 17.7952C52.9014 16.8863 53.0721 15.9839 53.4181 15.1432C53.764 14.3026 54.2779 13.5414 54.9282 12.9062C56.2285 11.6163 57.9858 10.8926 59.8172 10.8926C61.6487 10.8926 63.406 11.6163 64.7062 12.9062C65.3557 13.5406 65.8691 14.3006 66.2152 15.14C66.5613 15.9793 66.7328 16.8804 66.7192 17.7882C66.7169 18.7506 66.5214 19.7027 66.1442 20.5882C70.4447 21.1832 74.6171 22.4858 78.4922 24.4432C82.166 26.3429 85.4615 28.8982 88.2162 31.9832C90.8557 34.86 92.9889 38.163 94.5252 41.7522C95.9139 45.0932 96.6276 48.6761 96.6252 52.2942C96.5959 58.5524 97.064 64.8031 98.0252 70.9872C98.7732 76.0224 99.9764 80.9794 101.62 85.7972C103.031 89.7623 104.825 93.5804 106.977 97.1972C108.745 100.243 110.79 103.119 113.087 105.788C115.114 108.051 117.3 110.166 119.63 112.115C119.596 114.545 118.616 116.865 116.898 118.583C115.18 120.301 112.86 121.281 110.43 121.315H73.8002C72.7615 124.005 70.9329 126.318 68.5549 127.949C66.1768 129.58 63.3608 130.453 60.4772 130.453L60.4752 130.458ZM59.8182 29.2942C55.6469 29.2436 51.5061 30.0129 47.6312 31.5582C44.3334 32.8273 41.3533 34.8029 38.9002 37.3462C36.8563 39.5294 35.1808 42.0304 33.9392 44.7512C32.8414 47.1188 32.2537 49.6908 32.2142 52.3002C32.2326 58.348 31.8317 64.3898 31.0142 70.3822C30.2729 75.8072 29.0733 81.1597 27.4282 86.3822C25.9011 91.2038 23.8993 95.8619 21.4522 100.288C19.0988 104.521 16.2934 108.487 13.0852 112.115H106.549C103.341 108.487 100.536 104.521 98.1822 100.288C95.7348 95.86 93.7329 91.1999 92.2062 86.3762C90.5612 81.1537 89.3616 75.8012 88.6202 70.3762C87.8028 64.3838 87.4019 58.342 87.4202 52.2942C87.3815 49.6871 86.7955 47.1173 85.7002 44.7512C84.4588 42.0301 82.7829 39.5291 80.7382 37.3462C78.2834 34.8017 75.3008 32.826 72.0002 31.5582C68.1269 30.0134 63.9879 29.2442 59.8182 29.2942Z" fill="#E1E0E1"/>
<path d="M80.0662 65.1951L79.2682 64.7271L78.9052 65.5781L78.6132 66.2631C78.1605 67.5129 77.3465 68.6 76.2746 69.3863C75.2027 70.1726 73.9214 70.6225 72.5932 70.6791C71.2651 70.6227 69.9836 70.1728 68.9117 69.3865C67.8398 68.6002 67.0259 67.513 66.5732 66.2631L66.2822 65.5781L65.9202 64.7271L65.1202 65.1951L62.6492 66.6471L62.0322 67.0091L62.3122 67.6671L62.6042 68.3521C64.4952 72.7931 68.3232 75.5521 72.5942 75.5521C76.8652 75.5521 80.6942 72.7931 82.5842 68.3521L82.8762 67.6681L83.1572 67.0091L82.5402 66.6471L80.0662 65.1951Z" fill="#9B9B9B"/>
<path d="M57.8235 67.6681L58.1045 67.0091L57.4875 66.6471L55.0135 65.1951L54.2155 64.7271L53.8525 65.5771L53.5605 66.2621C53.1077 67.5119 52.2937 68.599 51.2219 69.3853C50.15 70.1716 48.8686 70.6215 47.5405 70.6781C46.2124 70.6215 44.931 70.1716 43.8591 69.3853C42.7872 68.599 41.9732 67.5119 41.5205 66.2621L41.2295 65.5781L40.8675 64.7271L40.0675 65.1951L37.5965 66.6471L36.9795 67.0091L37.2595 67.6681L37.5515 68.3531C39.4415 72.7941 43.2705 75.5531 47.5415 75.5531C51.8125 75.5531 55.6415 72.7941 57.5315 68.3531L57.8235 67.6681Z" fill="#9B9B9B"/>
<path d="M60.4746 89.71C59.7086 89.71 58.9598 89.9371 58.3228 90.3627C57.6859 90.7882 57.1895 91.3931 56.8964 92.1008C56.6032 92.8085 56.5265 93.5873 56.676 94.3385C56.8254 95.0898 57.1943 95.7799 57.7359 96.3216C58.2776 96.8632 58.9677 97.2321 59.719 97.3815C60.4703 97.531 61.249 97.4543 61.9567 97.1611C62.6644 96.868 63.2693 96.3716 63.6948 95.7347C64.1204 95.0978 64.3476 94.349 64.3476 93.583C64.3473 92.5559 63.9392 91.5709 63.2129 90.8446C62.4866 90.1184 61.5017 89.7102 60.4746 89.71" fill="#9B9B9B"/>
<path d="M114.652 31.0552H104.067V33.7922H110.158L103.908 41.1832V43.3272H114.856V40.5902H108.402L114.652 33.1992V31.0552Z" fill="#9B9B9B"/>
<path d="M90.8525 20.776L109.382 20.768V16.136H98.4585L109.03 3.628V0L91.1155 0.007V4.639H101.423L90.8525 17.148V20.776Z" fill="#9B9B9B"/>
</svg>
