<svg width="12" height="12" viewBox="0 0 12 12" fill="none" xmlns="http://www.w3.org/2000/svg">
<path d="M11.6695 3.32952L10.5889 4.41025C10.4788 4.52043 10.3006 4.52043 10.1905 4.41025L7.58864 1.80806C7.47847 1.69787 7.47847 1.5197 7.58864 1.40952L8.66921 0.328791C9.10754 -0.109597 9.8201 -0.109597 10.2608 0.328791L11.6695 1.73773C12.1102 2.17611 12.1102 2.88879 11.6695 3.32952ZM9.66072 4.94006L5.88223 1.16337C5.66189 0.943002 5.30561 0.943002 5.08762 1.16337L1.82246 4.429C1.60213 4.64937 1.60213 5.00571 1.82246 5.22373L2.08733 5.48863C2.30767 5.709 2.66395 5.709 2.88194 5.48863L5.48375 2.88644L5.79784 3.20058L0.298879 8.70035L0.00353843 11.3752C-0.0363091 11.7339 0.266064 12.0363 0.624692 11.9965L3.30151 11.6987L9.66306 5.33625C9.77088 5.22842 9.77088 5.05025 9.66072 4.94006Z" fill="#04344A"/>
</svg>
