<svg width="23" height="18" viewBox="0 0 23 18" fill="none" xmlns="http://www.w3.org/2000/svg">
<path d="M12.65 15.75H18.6875C19.1639 15.75 19.55 16.1278 19.55 16.5938V17.1562C19.55 17.6222 19.1639 18 18.6875 18H4.3125C3.83615 18 3.45 17.6222 3.45 17.1562V16.5938C3.45 16.1278 3.83615 15.75 4.3125 15.75H10.35V5.3903C9.50435 5.02875 8.87067 4.28126 8.68261 3.375H4.3125C3.83615 3.375 3.45 2.99725 3.45 2.53125V1.96875C3.45 1.50275 3.83615 1.125 4.3125 1.125H9.19996C9.72447 0.441914 10.5594 0 11.5 0C12.4406 0 13.2755 0.441914 13.8 1.125H18.6875C19.1639 1.125 19.55 1.50275 19.55 1.96875V2.53125C19.55 2.99725 19.1639 3.375 18.6875 3.375H14.3174C14.1293 4.28126 13.4956 5.02875 12.65 5.3903V15.75ZM22.9993 11.8125C22.9994 11.2436 23.0475 11.5057 19.9429 5.43143C19.3087 4.19063 17.4925 4.18837 16.8571 5.43143C13.726 11.5576 13.8007 11.2616 13.8007 11.8125H13.8C13.8 13.3658 15.8595 14.625 18.4 14.625C20.9405 14.625 23 13.3658 23 11.8125H22.9993ZM18.4 6.1875L20.9875 11.25H15.8125L18.4 6.1875ZM9.19932 11.8125C9.19935 11.2436 9.24755 11.5057 6.1429 5.43143C5.50872 4.19063 3.69247 4.18837 3.05713 5.43143C-0.0740312 11.5576 0.000682812 11.2616 0.000682812 11.8125H0C0 13.3658 2.05951 14.625 4.6 14.625C7.14049 14.625 9.2 13.3658 9.2 11.8125H9.19932ZM4.6 6.1875L7.1875 11.25H2.0125L4.6 6.1875Z" fill="white"/>
</svg>
