<svg width="25" height="25" viewBox="0 0 25 25" fill="none" xmlns="http://www.w3.org/2000/svg">
<g clip-path="url(#clip0)">
<path d="M24.6337 12.1347H18.7373V11.3015H20.3282C20.5304 11.3015 20.6944 11.1376 20.6944 10.9353C20.6944 10.7331 20.5304 10.5691 20.3282 10.5691H18.7373V9.73585H19.8418C20.2533 9.73585 20.6401 9.57565 20.9311 9.28468L23.3395 6.87619C23.4965 6.95437 23.6705 6.99597 23.8509 6.99597C24.1579 6.99597 24.4464 6.87644 24.6634 6.65945C24.8805 6.44241 25 6.15388 25 5.84695C25 5.54002 24.8805 5.25149 24.6634 5.03445C24.4464 4.81741 24.1579 4.69788 23.8509 4.69788C23.544 4.69788 23.2555 4.81741 23.0384 5.0344C22.8214 5.25144 22.7019 5.53997 22.7019 5.8469C22.7019 6.02737 22.7435 6.20134 22.8216 6.35828L20.4131 8.76676C20.2606 8.91935 20.0576 9.00343 19.8418 9.00343H18.7373V8.19543C18.7373 7.1302 17.8706 6.2636 16.8054 6.2636H15.9974V3.02167C16.4519 2.8684 16.7802 2.43837 16.7802 1.9328C16.7802 1.29921 16.2648 0.783786 15.6312 0.783786C14.9977 0.783786 14.4822 1.29926 14.4822 1.9328C14.4822 2.43837 14.8105 2.86835 15.265 3.02167V6.26355H14.4318V4.67269C14.4318 4.47044 14.2678 4.30648 14.0656 4.30648C13.8634 4.30648 13.6994 4.47044 13.6994 4.67269V6.26355H12.8661V0.367186C12.8661 0.164941 12.7022 0.000976562 12.4999 0.000976562C12.2977 0.000976562 12.1337 0.164941 12.1337 0.367186V6.26355H11.3005V4.67269C11.3005 4.47044 11.1366 4.30648 10.9343 4.30648C10.7321 4.30648 10.5681 4.47044 10.5681 4.67269V6.26355H9.73491V5.15911C9.73491 4.74764 9.57465 4.36077 9.28369 4.06986L6.87437 1.66054C7.08721 1.23081 7.01587 0.694968 6.6585 0.337548C6.21046 -0.110449 5.4815 -0.1104 5.03351 0.337548C4.58551 0.785544 4.58551 1.5145 5.03351 1.96254C5.25753 2.18651 5.55177 2.29853 5.846 2.29853C6.0212 2.29853 6.1961 2.25785 6.3565 2.17841L8.76582 4.58777C8.91845 4.74036 9.00249 4.94329 9.00249 5.15911V6.26355H8.19448C8.03115 6.26355 7.8687 6.28406 7.71167 6.32444C7.51582 6.37483 7.3979 6.57449 7.44829 6.77038C7.49868 6.96628 7.69839 7.0842 7.89424 7.03376C7.99165 7.00871 8.09263 6.99597 8.19443 6.99597H16.8054C17.4668 6.99597 18.0048 7.53405 18.0048 8.19538V16.8064C18.0048 16.9081 17.9922 17.0091 17.9672 17.1064C17.9168 17.3023 18.0348 17.5019 18.2306 17.5522C18.2612 17.5601 18.2919 17.5638 18.3221 17.5638C18.4852 17.5638 18.634 17.454 18.6765 17.2887C18.7168 17.1319 18.7373 16.9696 18.7373 16.8064V15.9984H21.9791C22.1324 16.4529 22.5624 16.7812 23.068 16.7812C23.7016 16.7812 24.217 16.2658 24.217 15.6322C24.217 14.9986 23.7016 14.4831 23.068 14.4831C22.5624 14.4831 22.1325 14.8115 21.9791 15.266H18.7373V14.4327H20.3281C20.5304 14.4327 20.6943 14.2687 20.6943 14.0665C20.6943 13.8643 20.5304 13.7003 20.3281 13.7003H18.7373V12.8671H24.6337C24.8359 12.8671 24.9999 12.7032 24.9999 12.5009C24.9999 12.2987 24.8359 12.1347 24.6337 12.1347ZM23.5563 5.55237C23.635 5.47366 23.7396 5.43035 23.8509 5.43035C23.9621 5.43035 24.0667 5.47366 24.1454 5.55237C24.2242 5.63108 24.2675 5.73567 24.2675 5.84695C24.2675 5.95823 24.2242 6.06282 24.1454 6.14153C24.0667 6.22024 23.9621 6.26355 23.8509 6.26355C23.7396 6.26355 23.635 6.22024 23.5563 6.14153C23.4776 6.06282 23.4343 5.95823 23.4343 5.84695C23.4343 5.73567 23.4776 5.63103 23.5563 5.55237ZM6.14053 1.44467C5.97813 1.60702 5.71383 1.60707 5.55133 1.44462C5.38888 1.28217 5.38888 1.01787 5.55133 0.855465C5.63258 0.774216 5.73922 0.73364 5.84596 0.73364C5.95264 0.73364 6.05933 0.774265 6.14053 0.855465C6.30299 1.01792 6.30299 1.28222 6.14053 1.44467ZM15.6312 2.3494C15.4015 2.3494 15.2146 2.16249 15.2146 1.9328C15.2146 1.70312 15.4015 1.5162 15.6312 1.5162C15.861 1.5162 16.0478 1.70312 16.0478 1.9328C16.0478 2.16249 15.8609 2.3494 15.6312 2.3494ZM23.0681 15.2156C23.2978 15.2156 23.4847 15.4025 23.4847 15.6322C23.4847 15.8619 23.2977 16.0488 23.0681 16.0488C22.8384 16.0488 22.6515 15.8619 22.6515 15.6322C22.6514 15.4025 22.8383 15.2156 23.0681 15.2156Z" fill="#738696"/>
<path d="M19.9664 23.0384C19.6091 22.681 19.0732 22.6096 18.6434 22.8225L16.2341 20.4131C16.0815 20.2605 15.9974 20.0576 15.9974 19.8418V18.7373H16.8054C16.9688 18.7373 17.1312 18.7168 17.2882 18.6765C17.484 18.6261 17.6019 18.4264 17.5515 18.2305C17.5011 18.0347 17.3016 17.9167 17.1056 17.9671C17.0082 17.9922 16.9073 18.0049 16.8054 18.0049H8.19445C7.53307 18.0049 6.99504 17.4668 6.99504 16.8055V8.19447C6.99504 8.09266 7.00773 7.99168 7.03278 7.89437C7.08322 7.69852 6.9653 7.49886 6.76945 7.44842C6.57356 7.39799 6.3739 7.51591 6.32351 7.71175C6.28308 7.86869 6.26262 8.03109 6.26262 8.19447V9.00247H3.02069C2.86742 8.54798 2.43739 8.21966 1.93183 8.21966C1.29824 8.21966 0.782809 8.73509 0.782809 9.36868C0.782809 10.0023 1.29829 10.5177 1.93183 10.5177C2.43739 10.5177 2.86737 10.1894 3.02069 9.73489H6.26257V10.5681H4.67171C4.46946 10.5681 4.3055 10.7321 4.3055 10.9343C4.3055 11.1366 4.46946 11.3006 4.67171 11.3006H6.26257V12.1338H0.366209C0.163964 12.1338 0 12.2977 0 12.5C0 12.7022 0.163964 12.8662 0.366209 12.8662H6.26257V13.6994H4.67171C4.46946 13.6994 4.3055 13.8633 4.3055 14.0656C4.3055 14.2678 4.46946 14.4318 4.67171 14.4318H6.26257V15.265H5.15808C4.74661 15.265 4.35975 15.4252 4.06883 15.7162L1.66034 18.1247C1.50341 18.0465 1.32944 18.0049 1.14897 18.0049C0.842038 18.0049 0.553513 18.1245 0.336473 18.3414C0.119531 18.5585 0 18.8471 0 19.1539C0 19.4608 0.119531 19.7494 0.336571 19.9664C0.553562 20.1835 0.842135 20.303 1.14907 20.303C1.456 20.303 1.74452 20.1834 1.96156 19.9664C2.1786 19.7494 2.29814 19.4609 2.29814 19.1539C2.29814 18.9735 2.25653 18.7995 2.17836 18.6426L4.58685 16.2341C4.73943 16.0815 4.94236 15.9974 5.15823 15.9974H6.26272V16.8054C6.26272 17.8707 7.12936 18.7372 8.19455 18.7372H9.00255V21.9791C8.54806 22.1324 8.21974 22.5624 8.21974 23.068C8.21974 23.7016 8.73522 24.217 9.36876 24.217C10.0023 24.217 10.5178 23.7015 10.5178 23.068C10.5178 22.5624 10.1895 22.1325 9.73497 21.9791V18.7372H10.5682V20.3281C10.5682 20.5304 10.7321 20.6943 10.9344 20.6943C11.1366 20.6943 11.3006 20.5304 11.3006 20.3281V18.7372H12.1337V24.6337C12.1337 24.836 12.2977 24.9999 12.4999 24.9999C12.7022 24.9999 12.8662 24.836 12.8662 24.6337V18.7373H13.6994V20.3282C13.6994 20.5305 13.8633 20.6944 14.0656 20.6944C14.2678 20.6944 14.4318 20.5305 14.4318 20.3282V18.7373H15.265V19.8418C15.265 20.2533 15.4252 20.6401 15.7162 20.931L18.1255 23.3404C17.9127 23.7701 17.984 24.3059 18.3414 24.6633C18.5654 24.8874 18.8597 24.9993 19.1539 24.9993C19.4482 24.9993 19.7424 24.8874 19.9664 24.6633C20.4144 24.2154 20.4144 23.4864 19.9664 23.0384ZM1.93183 9.78528C1.70209 9.78528 1.51523 9.59837 1.51523 9.36868C1.51523 9.13895 1.70214 8.95208 1.93183 8.95208C2.16151 8.95208 2.34843 9.13899 2.34843 9.36868C2.34848 9.59842 2.16156 9.78528 1.93183 9.78528ZM1.4436 19.4485C1.36489 19.5272 1.2603 19.5705 1.14902 19.5705C1.03774 19.5705 0.93315 19.5272 0.85444 19.4485C0.775729 19.3698 0.732419 19.2652 0.732419 19.1539C0.732419 19.0427 0.775729 18.9381 0.85444 18.8594C0.93315 18.7807 1.03774 18.7373 1.14902 18.7373C1.2603 18.7373 1.36489 18.7807 1.4436 18.8594C1.52231 18.9381 1.56562 19.0427 1.56562 19.1539C1.56562 19.2652 1.52231 19.3699 1.4436 19.4485ZM9.78526 23.0681C9.78526 23.2978 9.5984 23.4847 9.36866 23.4847C9.13893 23.4847 8.95206 23.2978 8.95206 23.0681C8.95206 22.8384 9.13898 22.6515 9.36866 22.6515C9.59835 22.6515 9.78526 22.8384 9.78526 23.0681ZM19.4486 24.1455C19.2861 24.3079 19.0218 24.3079 18.8593 24.1455C18.6969 23.983 18.6969 23.7187 18.8593 23.5563C18.9406 23.4751 19.0473 23.4345 19.154 23.4345C19.2607 23.4345 19.3674 23.4751 19.4486 23.5563C19.611 23.7187 19.611 23.983 19.4486 24.1455Z" fill="#738696"/>
<path d="M16.3888 11.5213C16.3888 10.7381 15.8159 10.0747 15.0317 9.85912C15.0549 9.76337 15.0678 9.66489 15.0678 9.56425C15.0678 8.82275 14.4096 8.21948 13.6008 8.21948C13.1626 8.21948 12.769 8.39668 12.4999 8.67676C12.2309 8.39668 11.8372 8.21948 11.3991 8.21948C10.5902 8.21948 9.93207 8.82275 9.93207 9.56425C9.93207 9.66489 9.94497 9.76337 9.96816 9.85912C9.18393 10.0747 8.61108 10.7381 8.61108 11.5213C8.61108 11.9041 8.74653 12.2652 8.99678 12.5635C8.7521 12.8802 8.61108 13.2647 8.61108 13.6741C8.61099 14.2968 8.9437 14.8781 9.4917 15.2388C9.4917 15.2391 9.4917 15.2394 9.4917 15.2397C9.4917 16.0891 10.2486 16.7801 11.1789 16.7801C11.7136 16.7801 12.1906 16.5517 12.4999 16.1963C12.8093 16.5517 13.2863 16.7801 13.8209 16.7801C14.7163 16.7801 15.4506 16.14 15.5046 15.3347C16.0484 15.0192 16.3888 14.4665 16.3888 13.8698C16.3888 13.4308 16.2016 13.012 15.8795 12.6955C16.2016 12.379 16.3888 11.9602 16.3888 11.5213ZM15.0927 13.0194C15.4456 13.2056 15.6562 13.5235 15.6562 13.8698C15.6562 14.1279 15.5363 14.3741 15.3336 14.5583C15.1411 14.2018 14.8008 13.918 14.3709 13.7829C14.178 13.7223 13.9724 13.8296 13.9117 14.0225C13.8511 14.2155 13.9584 14.4211 14.1513 14.4817C14.5247 14.599 14.7756 14.9036 14.7756 15.2397C14.7756 15.6853 14.3472 16.0478 13.8207 16.0478C13.2943 16.0478 12.866 15.6853 12.866 15.2397V12.8912C12.866 12.4457 13.2943 12.0832 13.8207 12.0832C14.023 12.0832 14.1869 11.9193 14.1869 11.717C14.1869 11.5148 14.023 11.3508 13.8207 11.3508C13.4665 11.3508 13.1376 11.4512 12.866 11.6222V11.1544C12.866 10.9521 12.702 10.7882 12.4997 10.7882C12.2975 10.7882 12.1335 10.9521 12.1335 11.1544V13.1874C12.0103 13.1101 11.8751 13.0461 11.7289 13.0001C11.5359 12.9395 11.3304 13.0468 11.2698 13.2397C11.2092 13.4326 11.3164 13.6382 11.5094 13.6989C11.8827 13.8162 12.1335 14.1208 12.1335 14.4569V15.2397C12.1335 15.6852 11.7052 16.0477 11.1787 16.0477C10.6522 16.0477 10.2239 15.6852 10.2239 15.2397C10.2239 15.0487 10.3049 14.8631 10.4518 14.717C10.5953 14.5744 10.596 14.3425 10.4534 14.199C10.3108 14.0556 10.079 14.0549 9.93554 14.1975C9.8478 14.2847 9.77226 14.3801 9.70947 14.4814C9.47822 14.2626 9.34321 13.9748 9.34321 13.674C9.34321 13.1314 9.76904 12.6548 10.3788 12.5149C10.5759 12.4697 10.699 12.2732 10.6538 12.0761C10.6086 11.8789 10.4121 11.7558 10.215 11.801C9.96953 11.8573 9.74355 11.9513 9.54316 12.0747C9.41323 11.9115 9.34326 11.7204 9.34326 11.5212C9.34341 10.9704 9.86557 10.522 10.5093 10.5177C10.5125 10.5178 10.5158 10.5183 10.519 10.5183C10.6026 10.5183 10.6867 10.4898 10.7555 10.4315C10.8958 10.3127 10.924 10.111 10.8298 9.95932C10.827 9.95483 10.8245 9.95024 10.8215 9.94589C10.82 9.9437 10.8182 9.94159 10.8166 9.9394C10.811 9.93144 10.8052 9.92363 10.7989 9.91611C10.7987 9.91586 10.7985 9.91562 10.7983 9.91542C10.7372 9.84321 10.6643 9.72368 10.6643 9.5642C10.6643 9.22656 10.9939 8.95185 11.399 8.95185C11.804 8.95185 12.1336 9.22656 12.1336 9.5642C12.1336 9.76645 12.2975 9.93041 12.4998 9.93041C12.702 9.93041 12.866 9.76645 12.866 9.5642C12.866 9.22656 13.1956 8.95185 13.6006 8.95185C14.0056 8.95185 14.3352 9.22656 14.3352 9.5642C14.3352 9.65444 14.3116 9.73139 14.2803 9.79467C14.072 9.81435 13.8705 9.86469 13.6793 9.94536C13.4929 10.0239 13.4055 10.2387 13.4841 10.4251C13.5627 10.6114 13.7775 10.6989 13.9638 10.6203C14.1221 10.5535 14.2925 10.5192 14.4701 10.5178C14.4736 10.5179 14.4771 10.5183 14.4806 10.5183C14.4839 10.5183 14.4871 10.5178 14.4904 10.5177C15.1341 10.5219 15.6562 10.9704 15.6562 11.5212C15.6562 11.8675 15.4456 12.1853 15.0927 12.3716C14.9726 12.435 14.8974 12.5597 14.8974 12.6955C14.8974 12.8313 14.9726 12.956 15.0927 13.0194Z" fill="#738696"/>
</g>
<rect x="0.5" y="0.5" width="24" height="24" stroke="white"/>
<defs>
<clipPath id="clip0">
</clipPath>
</defs>
</svg>
