<svg width="9" height="9" viewBox="0 0 9 9" fill="none" xmlns="http://www.w3.org/2000/svg">
<path d="M9 2.53125V7.59375C9 8.05957 8.62207 8.4375 8.15625 8.4375H0.84375C0.37793 8.4375 0 8.05957 0 7.59375V2.53125C0 2.06543 0.37793 1.6875 0.84375 1.6875H2.39062L2.60684 1.10918C2.72988 0.780469 3.04453 0.5625 3.39609 0.5625H5.60215C5.95371 0.5625 6.26836 0.780469 6.39141 1.10918L6.60938 1.6875H8.15625C8.62207 1.6875 9 2.06543 9 2.53125ZM6.60938 5.0625C6.60938 3.89883 5.66367 2.95312 4.5 2.95312C3.33633 2.95312 2.39062 3.89883 2.39062 5.0625C2.39062 6.22617 3.33633 7.17188 4.5 7.17188C5.66367 7.17188 6.60938 6.22617 6.60938 5.0625ZM6.04688 5.0625C6.04688 5.91504 5.35254 6.60938 4.5 6.60938C3.64746 6.60938 2.95312 5.91504 2.95312 5.0625C2.95312 4.20996 3.64746 3.51562 4.5 3.51562C5.35254 3.51562 6.04688 4.20996 6.04688 5.0625Z" fill="white"/>
</svg>
