<svg width="21" height="21" viewBox="0 0 21 21" fill="none" xmlns="http://www.w3.org/2000/svg">
<path d="M8.03223 16.2584C7.69305 16.2584 7.41699 15.9823 7.41699 15.6431C7.41699 15.3033 7.14158 15.0279 6.80176 15.0279C6.46194 15.0279 6.18652 15.3033 6.18652 15.6431C6.18652 16.4476 6.70403 17.133 7.42356 17.3852V17.9238C7.42356 18.2636 7.69897 18.5391 8.03879 18.5391C8.37862 18.5391 8.65403 18.2636 8.65403 17.9238V17.3807C9.36668 17.125 9.87793 16.4428 9.87793 15.6431C9.87793 14.6254 9.04993 13.7974 8.03223 13.7974C7.69305 13.7974 7.41699 13.5214 7.41699 13.1822C7.41699 12.8429 7.69305 12.567 8.03223 12.567C8.37141 12.567 8.64746 12.8429 8.64746 13.1822C8.64746 13.522 8.92287 13.7974 9.26269 13.7974C9.60251 13.7974 9.87793 13.522 9.87793 13.1822C9.87793 12.3826 9.36668 11.7003 8.65403 11.4445V10.541C8.65403 10.2012 8.37862 9.92578 8.03879 9.92578C7.69897 9.92578 7.42356 10.2012 7.42356 10.541V11.44C6.70403 11.6922 6.18652 12.3776 6.18652 13.1822C6.18652 14.1999 7.01453 15.0279 8.03223 15.0279C8.37141 15.0279 8.64746 15.3038 8.64746 15.6431C8.64746 15.9823 8.37141 16.2584 8.03223 16.2584Z" fill="white"/>
<path d="M2.50772 19.9953C3.78802 20.6807 5.54576 21 8.03906 21C10.0677 21 11.5946 20.7898 12.7809 20.3428C13.1197 20.7443 13.6262 21 14.1914 21H19.1543C20.172 21 21 20.172 21 19.1543C21 18.682 20.8214 18.2507 20.5285 17.9238C20.8215 17.597 21 17.1657 21 16.6934C21 16.221 20.8214 15.7897 20.5285 15.4629C20.8215 15.136 21 14.7047 21 14.2324C21 13.7601 20.8214 13.3288 20.5285 13.002C20.8215 12.6751 21 12.2438 21 11.7715C21 10.7538 20.172 9.92578 19.1543 9.92578H14.1914C14.1315 9.92578 14.0722 9.92883 14.0137 9.93459C13.3962 9.1867 12.6727 8.55961 11.8755 8.07864C12.1675 7.75211 12.3457 7.32129 12.3457 6.84961C12.3457 6.11437 11.9134 5.47831 11.2897 5.18175L12.3154 2.03652C12.3765 1.84907 12.3441 1.64383 12.2284 1.48441C12.1126 1.32484 11.9275 1.23047 11.7305 1.23047H9.77902C9.52492 0.514297 8.84111 0 8.03906 0C7.23685 0 6.55273 0.514297 6.29878 1.23047H4.34766C4.15059 1.23047 3.96554 1.32484 3.8497 1.48441C3.73402 1.64383 3.70166 1.84907 3.7627 2.03652L4.78841 5.18175C4.16469 5.47831 3.73242 6.11437 3.73242 6.84961C3.73242 7.32161 3.91074 7.75275 4.2033 8.07944C1.73483 9.5693 0 12.3989 0 15.4629C0 17.5795 0.843704 19.1043 2.50772 19.9953ZM19.7695 14.2324C19.7695 14.5716 19.4935 14.8477 19.1543 14.8477H14.1914C13.8522 14.8477 13.5762 14.5716 13.5762 14.2324C13.5762 13.8932 13.8522 13.6172 14.1914 13.6172H19.1543C19.4935 13.6172 19.7695 13.8932 19.7695 14.2324ZM19.7695 16.6934C19.7695 17.0325 19.4935 17.3086 19.1543 17.3086H14.1914C13.8522 17.3086 13.5762 17.0325 13.5762 16.6934C13.5762 16.3542 13.8522 16.0781 14.1914 16.0781H19.1543C19.4935 16.0781 19.7695 16.3542 19.7695 16.6934ZM19.1543 19.7695H14.1914C13.8522 19.7695 13.5762 19.4935 13.5762 19.1543C13.5762 18.8151 13.8522 18.5391 14.1914 18.5391H19.1543C19.4935 18.5391 19.7695 18.8151 19.7695 19.1543C19.7695 19.4935 19.4935 19.7695 19.1543 19.7695ZM19.7695 11.7715C19.7695 12.1107 19.4935 12.3867 19.1543 12.3867H14.1914C13.8522 12.3867 13.5762 12.1107 13.5762 11.7715C13.5762 11.4323 13.8522 11.1562 14.1914 11.1562H19.1543C19.4935 11.1562 19.7695 11.4323 19.7695 11.7715ZM10.4824 7.46484H5.59591C5.59046 7.46468 5.58501 7.46484 5.57957 7.46484H5.57812C5.23895 7.46484 4.96289 7.18879 4.96289 6.84961C4.96289 6.51107 5.23782 6.2355 5.5762 6.23454H5.57796C5.57941 6.23454 5.58085 6.23438 5.58229 6.23438H10.4957C10.4971 6.23438 10.4987 6.23454 10.5002 6.23454H10.5019C10.8403 6.2355 11.1152 6.51107 11.1152 6.84961C11.1152 7.18879 10.8392 7.46484 10.5 7.46484H10.4981C10.493 7.46484 10.4877 7.46468 10.4824 7.46484ZM6.80859 2.46094C7.14841 2.46094 7.42383 2.18552 7.42383 1.8457C7.42383 1.50652 7.69988 1.23047 8.03906 1.23047C8.37824 1.23047 8.6543 1.50652 8.6543 1.8457V3.07617C8.6543 3.41599 8.92971 3.69141 9.26953 3.69141C9.60935 3.69141 9.88477 3.41599 9.88477 3.07617V2.46094H10.8828L10.0535 5.00391H6.02465L5.19537 2.46094H6.80859ZM5.69813 8.69531H10.3776C11.3093 9.08448 12.1584 9.69731 12.8666 10.4883C12.5445 10.8208 12.3457 11.2732 12.3457 11.7715C12.3457 12.2438 12.5243 12.6751 12.8172 13.002C12.5243 13.3288 12.3457 13.7601 12.3457 14.2324C12.3457 14.7047 12.5243 15.136 12.8172 15.4629C12.5243 15.7897 12.3457 16.221 12.3457 16.6934C12.3457 17.1657 12.5243 17.597 12.8172 17.9238C12.5243 18.2507 12.3457 18.682 12.3457 19.1543C12.3457 19.167 12.3463 19.1795 12.3467 19.1919C11.3059 19.585 9.91969 19.7695 8.03906 19.7695C5.75629 19.7695 4.18311 19.4965 3.08851 18.9104C1.82087 18.2318 1.23047 17.1364 1.23047 15.4629C1.23047 12.561 3.06207 9.79568 5.69813 8.69531Z" fill="white"/>
</svg>
