<svg width="60" height="72" viewBox="0 0 60 72" fill="none" xmlns="http://www.w3.org/2000/svg">
<path fill-rule="evenodd" clip-rule="evenodd" d="M51.9862 52H8.7083C3.89884 52 0 56.4772 0 62C0 67.5228 3.89884 72 8.7083 72C9.26819 72 9.72207 71.4788 9.72207 70.8359C9.72207 70.1929 9.26819 69.6717 8.7083 69.6717C5.01862 69.6717 2.02754 66.237 2.02754 62C2.02754 57.763 5.01862 54.3283 8.7083 54.3283H51.9862C52.5461 54.3283 53 53.8071 53 53.1641C53 52.5212 52.5461 52 51.9862 52Z" fill="#90A7BA"/>
<path fill-rule="evenodd" clip-rule="evenodd" d="M58.9862 0H8.01377C7.45388 0 7 0.50368 7 1.125V45.0788C7 45.7001 7.45388 46.2038 8.01377 46.2038C8.57366 46.2038 9.02754 45.7001 9.02754 45.0788V2.25H57.9725V62.325C57.9725 66.4195 54.9814 69.7388 51.2917 69.7388C47.602 69.7388 44.6109 66.4195 44.6109 62.325C44.6109 58.2305 47.602 54.9113 51.2917 54.9113C51.8516 54.9113 52.3055 54.4076 52.3055 53.7863C52.3055 53.1649 51.8516 52.6613 51.2917 52.6613C47.6186 52.6471 44.3335 55.1949 43.083 59.0275C41.8325 62.8601 42.8862 67.1513 45.716 69.75H8.01377C7.45388 69.75 7 70.2537 7 70.875C7 71.4963 7.45388 72 8.01377 72H51.2917C56.0988 71.9938 59.9944 67.6708 60 62.3363V1.125C60 0.50368 59.5461 0 58.9862 0Z" fill="#90A7BA"/>
<path fill-rule="evenodd" clip-rule="evenodd" d="M50.9932 12H16.0068C15.4508 12 15 11.5523 15 11C15 10.4477 15.4508 10 16.0068 10H50.9932C51.5492 10 52 10.4477 52 11C52 11.5523 51.5492 12 50.9932 12Z" fill="#90A7BA"/>
<path fill-rule="evenodd" clip-rule="evenodd" d="M50.9932 22H16.0068C15.4508 22 15 21.3284 15 20.5C15 19.6716 15.4508 19 16.0068 19H50.9932C51.5492 19 52 19.6716 52 20.5C52 21.3284 51.5492 22 50.9932 22Z" fill="#90A7BA"/>
<path fill-rule="evenodd" clip-rule="evenodd" d="M50.9932 30H16.0068C15.4508 30 15 29.5523 15 29C15 28.4477 15.4508 28 16.0068 28H50.9932C51.5492 28 52 28.4477 52 29C52 29.5523 51.5492 30 50.9932 30Z" fill="#90A7BA"/>
</svg>
