<svg width="20" height="15" viewBox="0 0 20 15" fill="none" xmlns="http://www.w3.org/2000/svg">
<path d="M18.125 0H1.875C0.839453 0 0 0.839453 0 1.875V13.125C0 14.1605 0.839453 15 1.875 15H18.125C19.1605 15 20 14.1605 20 13.125V1.875C20 0.839453 19.1605 0 18.125 0ZM6.875 2.5C8.6009 2.5 10 3.8991 10 5.625C10 7.3509 8.6009 8.75 6.875 8.75C5.1491 8.75 3.75 7.3509 3.75 5.625C3.75 3.8991 5.1491 2.5 6.875 2.5ZM11.25 11.5625C11.25 12.0803 10.8303 12.5 10.3125 12.5H3.4375C2.91973 12.5 2.5 12.0803 2.5 11.5625V10.3946C2.5 10.1909 2.56636 9.99273 2.68905 9.83008C2.81173 9.66743 2.98407 9.54917 3.17996 9.4932L4.31035 9.17023C5.05168 9.70895 5.9409 10 6.875 10C7.8091 10 8.69832 9.70895 9.43969 9.17027L10.5701 9.49324C10.766 9.54921 10.9383 9.66746 11.061 9.8301C11.1836 9.99275 11.25 10.1909 11.25 10.3946V11.5625ZM17.5 9.53125C17.5 9.79012 17.2901 10 17.0312 10H12.9688C12.7099 10 12.5 9.79012 12.5 9.53125V9.21875C12.5 8.95988 12.7099 8.75 12.9688 8.75H17.0312C17.2901 8.75 17.5 8.95988 17.5 9.21875V9.53125ZM17.5 7.03125C17.5 7.29012 17.2901 7.5 17.0312 7.5H12.9688C12.7099 7.5 12.5 7.29012 12.5 7.03125V6.71875C12.5 6.45988 12.7099 6.25 12.9688 6.25H17.0312C17.2901 6.25 17.5 6.45988 17.5 6.71875V7.03125ZM17.5 4.53125C17.5 4.79012 17.2901 5 17.0312 5H12.9688C12.7099 5 12.5 4.79012 12.5 4.53125V4.21875C12.5 3.95988 12.7099 3.75 12.9688 3.75H17.0312C17.2901 3.75 17.5 3.95988 17.5 4.21875V4.53125Z" fill="white"/>
</svg>
