<svg width="19" height="18" viewBox="0 0 19 18" fill="none" xmlns="http://www.w3.org/2000/svg">
<path d="M17.9578 6.39998C17.9578 9.27998 14.7511 10.96 12.346 11.52C12.1055 11.6 11.865 11.92 11.9451 12.16L12.9873 14.96L10.0211 12C9.86076 11.92 9.70042 11.84 9.54008 11.84C6.4135 11.84 1.04219 10.32 1.04219 6.39998C1.04219 -0.72002 17.9578 -0.72002 17.9578 6.39998ZM0 6.39998C0 10.96 5.77215 12.88 9.37975 12.88L13.8692 17.44C14.3502 17.84 14.9916 17.44 14.8312 16.88L13.1477 12.4C15.9536 11.6 19 9.59998 19 6.39998C19 -2.16002 0 -2.16002 0 6.39998Z" fill="white"/>
</svg>
