<svg width="25" height="24" viewBox="0 0 25 24" fill="none" xmlns="http://www.w3.org/2000/svg">
<path fill-rule="evenodd" clip-rule="evenodd" d="M15.1044 17.1258C19.5591 17.1258 23.1703 13.5159 23.1703 9.06288C23.1703 4.60987 19.5591 1 15.1044 1C10.6497 1 7.03848 4.60987 7.03848 9.06288C7.03848 10.8547 7.62318 12.51 8.61225 13.8485C8.28756 13.8873 7.97309 14.0313 7.72396 14.2804L1.61431 20.4188C1.02392 21.0092 1.0241 21.9666 1.61471 22.5572C2.20532 23.1478 3.16271 23.148 3.7531 22.5576L9.86275 16.4192C10.1107 16.1713 10.2545 15.8587 10.2941 15.5356C11.6371 16.5346 13.3017 17.1258 15.1044 17.1258ZM15.1044 15.11C11.7634 15.11 9.05496 12.4026 9.05496 9.06288C9.05496 5.72313 11.7634 3.01572 15.1044 3.01572C18.4454 3.01572 21.1538 5.72313 21.1538 9.06288C21.1538 12.4026 18.4454 15.11 15.1044 15.11Z" fill="#90A7BA"/>
</svg>
