<svg width="33" height="32" viewBox="0 0 33 32" fill="none" xmlns="http://www.w3.org/2000/svg">
<path d="M0 12.7188C0 13.5451 0.328648 14.3151 0.895126 14.883C0.252979 15.5856 -0.0742493 16.5276 0.0151443 17.5079C0.176022 19.2555 1.75042 20.625 3.60113 20.625L12.0945 20.625C11.6737 21.9024 11 24.244 11 26.125C11 29.1074 13.5341 31.625 15.125 31.625C16.5523 31.625 17.5739 30.8206 17.6165 30.7876C17.7802 30.657 17.875 30.459 17.875 30.25V25.5874L21.8364 17.0088L22 16.9249V17.1876C22 17.5671 22.3081 17.8751 22.6876 17.8751H29.5625C31.4586 17.875 33 16.3336 33 14.4375V3.43752C33 1.54138 31.4586 4.57764e-05 29.5625 4.57764e-05H25.4375C23.9512 4.57764e-05 22.6807 0.948795 22.2022 2.27292C21.0581 1.6844 19.5181 1.37502 18.5625 1.37502L5.94135 1.37502C4.44398 1.37502 3.13358 2.38429 2.82562 3.77577C2.66752 4.49352 2.75962 5.2154 3.07312 5.8424C2.05837 6.35255 1.37498 7.40165 1.37498 8.59377C1.37498 9.08052 1.48635 9.54665 1.69673 9.9674C0.68198 10.4789 0 11.5266 0 12.7188ZM2.89988 11.022C3.16523 10.9904 3.3894 10.8103 3.4746 10.5559C3.55846 10.3015 3.48833 10.0224 3.2931 9.83817C2.94383 9.50952 2.74996 9.0668 2.74996 8.59377C2.74996 7.72617 3.40583 6.9974 4.27344 6.89705C4.53879 6.8654 4.76296 6.68532 4.84816 6.43092C4.93202 6.17652 4.86189 5.89744 4.66666 5.71317C4.21427 5.28694 4.03277 4.68882 4.16889 4.07277C4.33802 3.30552 5.08329 2.75 5.94129 2.75L18.5625 2.75C19.679 2.75 21.5518 3.27388 22.2008 3.92427C22.3974 4.1195 22.6944 4.17725 22.9501 4.07277C23.2072 3.96688 23.375 3.71525 23.375 3.43752C23.375 2.30038 24.3004 1.37502 25.4375 1.37502H29.5625C30.6997 1.37502 31.625 2.30038 31.625 3.43752V14.4375C31.625 15.5747 30.6997 16.5 29.5625 16.5H23.375V15.8125C23.375 15.5746 23.2513 15.3533 23.0478 15.2268C22.847 15.1058 22.594 15.0934 22.3795 15.1979L21.0046 15.8854C20.8657 15.9542 20.7543 16.0697 20.6883 16.2113L16.5633 25.1488C16.522 25.2396 16.5001 25.3386 16.5001 25.4376V29.8774C16.214 30.0355 15.7176 30.25 15.125 30.25C14.3715 30.25 12.375 28.3773 12.375 26.125C12.375 23.705 13.6922 20.2167 13.7046 20.1823C13.7843 19.9719 13.7569 19.734 13.629 19.547C13.4998 19.3614 13.288 19.25 13.0625 19.25L3.60113 19.25C2.45438 19.25 1.48088 18.4291 1.38465 17.3814C1.31175 16.5976 1.68854 15.8524 2.36362 15.4357C2.574 15.3065 2.6991 15.0727 2.6895 14.8239C2.6799 14.575 2.53687 14.3523 2.3169 14.2381C1.73527 13.9425 1.37504 13.3595 1.37504 12.7188C1.37498 11.8512 2.03085 11.1224 2.89988 11.022Z" fill="#FF655B"/>
<path d="M22.6875 16.5C23.067 16.5 23.375 16.192 23.375 15.8125V3.43747C23.375 3.05797 23.067 2.74995 22.6875 2.74995C22.308 2.74995 22 3.05797 22 3.43747V15.8125C22 16.192 22.308 16.5 22.6875 16.5Z" fill="#FF655B"/>
</svg>
