<svg width="13" height="11" viewBox="0 0 13 11" fill="none" xmlns="http://www.w3.org/2000/svg">
<path d="M11.9687 1.07649C11.2958 0.382319 10.3724 0 9.36845 0C8.61803 0 7.9308 0.225637 7.32579 0.670591C7.02051 0.895191 6.74389 1.16997 6.5 1.4907C6.25621 1.17007 5.97949 0.895191 5.67411 0.670591C5.0692 0.225637 4.38197 0 3.63155 0C2.62763 0 1.70415 0.382319 1.0312 1.07649C0.36628 1.76255 0 2.69982 0 3.71575C0 4.7614 0.409721 5.71856 1.28937 6.72808C2.07628 7.6311 3.20725 8.5478 4.51695 9.60929C4.96416 9.9718 5.47108 10.3827 5.99744 10.8204C6.1365 10.9362 6.31493 11 6.5 11C6.68497 11 6.8635 10.9362 7.00236 10.8206C7.52872 10.3828 8.03593 9.97171 8.48335 9.60901C9.79285 8.54771 10.9238 7.6311 11.7107 6.72799C12.5904 5.71856 13 4.7614 13 3.71566C13 2.69982 12.6337 1.76255 11.9687 1.07649Z" fill="white"/>
</svg>
