<svg width="26" height="26" viewBox="0 0 26 26" fill="none" xmlns="http://www.w3.org/2000/svg">
<path d="M18.4953 9.75H25.1695C25.4457 10.7869 25.5937 11.8761 25.5937 13C25.5937 14.1239 25.4457 15.2131 25.1695 16.25H18.4953C18.757 14.0639 18.7461 11.8449 18.4953 9.75ZM9.4054 17.875C9.94764 20.6009 11.09 23.5886 12.9664 25.5933C12.9777 25.5934 12.9888 25.5938 13 25.5938C13.0112 25.5938 13.0223 25.5933 13.0336 25.5933C14.9131 23.5853 16.0534 20.5958 16.5946 17.875H9.4054ZM18.2479 8.125H24.6151C22.9939 4.26684 19.5065 1.38658 15.2826 0.613184C16.8181 2.80287 17.7618 5.50504 18.2479 8.125ZM16.8591 9.75H9.14093C8.86981 11.8784 8.8695 14.1191 9.14093 16.25H16.8591C17.1302 14.1215 17.1305 11.8809 16.8591 9.75ZM7.75206 17.875H1.38486C3.0061 21.7332 6.49345 24.6134 10.7173 25.3868C9.1814 23.1963 8.23804 20.494 7.75206 17.875ZM18.2479 17.875C17.7617 20.4956 16.8178 23.1976 15.2826 25.3868C19.5065 24.6134 22.9939 21.7332 24.6151 17.875H18.2479ZM16.5946 8.125C16.0524 5.39906 14.91 2.4114 13.0336 0.406656C13.0223 0.406656 13.0112 0.40625 13 0.40625C12.9888 0.40625 12.9777 0.406656 12.9664 0.406656C11.0869 2.4147 9.94662 5.40424 9.4054 8.125H16.5946ZM0.830527 9.75C0.554277 10.7869 0.40625 11.8761 0.40625 13C0.40625 14.1239 0.554277 15.2131 0.830527 16.25H7.50471C7.2539 14.1551 7.24298 11.9361 7.50471 9.75H0.830527ZM7.75206 8.125C8.23829 5.50459 9.18211 2.80262 10.7174 0.613184C6.4935 1.38658 3.00615 4.26684 1.38486 8.125H7.75206Z" fill="white"/>
</svg>
