<svg width="59" height="80" viewBox="0 0 59 80" fill="none" xmlns="http://www.w3.org/2000/svg">
<path fill-rule="evenodd" clip-rule="evenodd" d="M35.0143 15.1768V55.4507C35.0143 58.6503 32.3165 61.27 29.0157 61.27C25.719 61.27 23.0209 58.6523 23.0209 55.4507V15.1768C23.0209 11.9729 25.719 9.35507 29.0175 9.35507C32.3165 9.35507 35.0143 11.975 35.0143 15.1768ZM11.9936 28.127V42.5C11.9936 45.6997 9.29338 48.3217 5.99655 48.3217C2.70193 48.3217 0.00204061 45.702 0.00204061 42.5V28.127C0.00204061 24.9254 2.70005 22.3055 5.99876 22.3055C9.29806 22.3055 11.9936 24.9276 11.9936 28.127ZM5.99669 55.1297C9.29572 55.1297 11.9915 57.7497 11.9915 60.9537V63.6783C11.9915 66.8827 9.29572 69.5027 5.99669 69.5027C2.69802 69.5027 0 66.8827 0 63.6783V60.9537C0 57.7497 2.69802 55.1297 5.99669 55.1297ZM47.0085 73.7977V28.3737V17.8335V5.82383C47.0085 2.61993 49.7062 0 53.0031 0C56.6058 0 59 2.85523 59 6.18553V28.3737V74.176C59 77.38 56.3016 80 53.0031 80C49.7062 80 47.0085 77.3777 47.0085 74.176V73.7977Z" fill="white"/>
</svg>
