<svg width="60" height="60" viewBox="0 0 37 46" fill="none" xmlns="http://www.w3.org/2000/svg">
<g filter="url(#filter0_d)">
<path fill-rule="evenodd" clip-rule="evenodd" d="M18.8457 39C29.063 39 37.3457 30.7173 37.3457 20.5C37.3457 10.2827 29.063 2 18.8457 2C8.62843 2 0.345703 10.2827 0.345703 20.5C0.345703 30.7173 8.62843 39 18.8457 39Z" fill="#07C4E7"/>
</g>
<g filter="url(#filter1_d)">
<path fill-rule="evenodd" clip-rule="evenodd" d="M24.4567 28.3208L28.1217 27.2631C29.8572 26.4658 32.0647 27.8899 30.4227 28.6442C23.1598 31.9805 23.7316 32 20.8441 32C19.1701 32 16.691 31.7324 13.5173 30.3027C12.5245 29.8556 10.6179 30.5779 8.30372 31.1743C7.57692 31.3621 6.63366 27.0392 7.14623 26.8254C7.60588 26.6337 10.0329 26.2699 11.6228 25.9659C13.926 25.5256 16.2582 24.6412 18.0013 25.1567L23.0216 27.541C24.7717 28.0583 24.5554 30.736 22.8054 30.218L16.3575 28.3113" fill="#09BFE5"/>
<path d="M24.4567 28.3208L28.1217 27.2631C29.8572 26.4658 32.0647 27.8899 30.4227 28.6442C23.1598 31.9805 23.7316 32 20.8441 32C19.1701 32 16.691 31.7324 13.5173 30.3027C12.5245 29.8556 10.6179 30.5779 8.30372 31.1743C7.57692 31.3621 6.63366 27.0392 7.14623 26.8254C7.60588 26.6337 10.0329 26.2699 11.6228 25.9659C13.926 25.5256 16.2582 24.6412 18.0013 25.1567L23.0216 27.541C24.7717 28.0583 24.5554 30.736 22.8054 30.218L16.3575 28.3113" stroke="white" stroke-linecap="round"/>
</g>
<g filter="url(#filter2_d)">
<path fill-rule="evenodd" clip-rule="evenodd" d="M20.3158 10.7298V18.6917C20.3158 19.3242 19.783 19.8421 19.1312 19.8421C18.4802 19.8421 17.9474 19.3246 17.9474 18.6917V10.7298C17.9474 10.0965 18.4802 9.57895 19.1316 9.57895C19.783 9.57895 20.3158 10.0969 20.3158 10.7298ZM16.3684 13.7968V16.4137C16.3684 16.9963 15.8351 17.4737 15.184 17.4737C14.5332 17.4737 14 16.9967 14 16.4137V13.7968C14 13.2139 14.5329 12.7368 15.1844 12.7368C15.836 12.7368 16.3684 13.2143 16.3684 13.7968ZM15.1844 19.0526C15.836 19.0526 16.3684 19.4844 16.3684 20.0123V20.4613C16.3684 20.9893 15.836 21.4211 15.1844 21.4211C14.5329 21.4211 14 20.9893 14 20.4613V20.0123C14 19.4844 14.5329 19.0526 15.1844 19.0526ZM22.6842 21.8371V13.3201V11.3438V9.09197C22.6842 8.49124 23.217 8 23.8682 8C24.5798 8 25.0526 8.53536 25.0526 9.15979V13.3201V21.908C25.0526 22.5088 24.5197 23 23.8682 23C23.217 23 22.6842 22.5083 22.6842 21.908V21.8371Z" fill="white"/>
</g>
<defs>
<filter id="filter0_d" x="-7.6543" y="-4" width="57" height="57" filterUnits="userSpaceOnUse" color-interpolation-filters="sRGB">
<feFlood flood-opacity="0" result="BackgroundImageFix"/>
<feColorMatrix in="SourceAlpha" type="matrix" values="0 0 0 0 0 0 0 0 0 0 0 0 0 0 0 0 0 0 127 0"/>
<feOffset dx="2" dy="4"/>
<feGaussianBlur stdDeviation="5"/>
<feColorMatrix type="matrix" values="0 0 0 0 0.0150166 0 0 0 0 0.00538533 0 0 0 0 0.138134 0 0 0 0.25 0"/>
<feBlend mode="normal" in2="BackgroundImageFix" result="effect1_dropShadow"/>
<feBlend mode="normal" in="SourceGraphic" in2="effect1_dropShadow" result="shape"/>
</filter>
<filter id="filter1_d" x="0.5" y="22.5001" width="37" height="19.9999" filterUnits="userSpaceOnUse" color-interpolation-filters="sRGB">
<feFlood flood-opacity="0" result="BackgroundImageFix"/>
<feColorMatrix in="SourceAlpha" type="matrix" values="0 0 0 0 0 0 0 0 0 0 0 0 0 0 0 0 0 0 127 0"/>
<feOffset dy="4"/>
<feGaussianBlur stdDeviation="3"/>
<feColorMatrix type="matrix" values="0 0 0 0 0 0 0 0 0 0 0 0 0 0 0 0 0 0 0.15 0"/>
<feBlend mode="normal" in2="BackgroundImageFix" result="effect1_dropShadow"/>
<feBlend mode="normal" in="SourceGraphic" in2="effect1_dropShadow" result="shape"/>
</filter>
<filter id="filter2_d" x="8" y="6" width="23.0526" height="27" filterUnits="userSpaceOnUse" color-interpolation-filters="sRGB">
<feFlood flood-opacity="0" result="BackgroundImageFix"/>
<feColorMatrix in="SourceAlpha" type="matrix" values="0 0 0 0 0 0 0 0 0 0 0 0 0 0 0 0 0 0 127 0"/>
<feOffset dy="4"/>
<feGaussianBlur stdDeviation="3"/>
<feColorMatrix type="matrix" values="0 0 0 0 0 0 0 0 0 0 0 0 0 0 0 0 0 0 0.25 0"/>
<feBlend mode="normal" in2="BackgroundImageFix" result="effect1_dropShadow"/>
<feBlend mode="normal" in="SourceGraphic" in2="effect1_dropShadow" result="shape"/>
</filter>
</defs>
</svg>
