<svg width="24" height="24" viewBox="0 0 24 24" fill="none" xmlns="http://www.w3.org/2000/svg">
<path fill-rule="evenodd" clip-rule="evenodd" d="M13.44 8C13.44 9.65685 14.7294 11 16.32 11C17.9106 11 19.2 9.65685 19.2 8C19.2 6.34315 17.9106 5 16.32 5C14.7294 5 13.44 6.34315 13.44 8ZM20.9232 12.9097L17.593 14.0657C17.7249 14.4393 17.7815 14.8467 17.7533 15.256C17.666 16.5216 16.7741 17.336 15.5641 16.9164L8.4885 14.4648C8.23696 14.3777 8.10087 14.0946 8.18454 13.8326C8.2682 13.5706 8.53995 13.4288 8.7915 13.516L15.8672 15.9676C16.4174 16.1583 16.7495 15.8551 16.7957 15.1844C16.8306 14.6791 16.6668 14.1855 16.3579 13.8464L15.7708 13.4627C15.7184 13.4404 15.6716 13.4093 15.6315 13.3716L15.4713 13.2669L10.1049 10.2014C8.72182 9.70956 6.99195 10.2091 5.18528 10.7309C4.55782 10.9121 3.92109 11.096 3.28641 11.2419C2.29729 11.4694 1.5657 11.3842 1.03005 11.3218C0.645336 11.277 0.361696 11.2439 0.15631 11.347C-0.391609 11.6218 0.616709 17.1799 1.39363 16.9384C3.86744 16.1716 4.25028 16.2429 5.31161 16.8177C8.70419 18.6559 11.3542 19 13.1437 19C15.6895 19 15.7198 18.983 20.0084 16.5702C20.9194 16.0576 22.0226 15.4369 23.3829 14.6853C25.1382 13.7156 22.7784 11.8846 20.9232 12.9097Z" fill="#04344A"/>
</svg>
