<svg width="24" height="24" viewBox="0 0 24 24" fill="none" xmlns="http://www.w3.org/2000/svg">
<path fill-rule="evenodd" clip-rule="evenodd" d="M19 4C17.8954 4 17 4.89543 17 6V18C17 19.1046 17.8954 20 19 20C20.1046 20 21 19.1046 21 18V6C21 4.89543 20.1046 4 19 4ZM12 10C12 8.89543 12.8954 8 14 8C15.1046 8 16 8.89543 16 10V18C16 19.1046 15.1046 20 14 20C12.8954 20 12 19.1046 12 18V10ZM4 9C2.89543 9 2 9.89543 2 11V18C2 19.1046 2.89543 20 4 20C5.10457 20 6 19.1046 6 18V11C6 9.89543 5.10457 9 4 9ZM9 11C7.89543 11 7 11.8954 7 13V18C7 19.1046 7.89543 20 9 20C10.1046 20 11 19.1046 11 18V13C11 11.8954 10.1046 11 9 11Z" fill="#90A7BA"/>
</svg>
