<svg width="10" height="14" viewBox="0 0 10 14" fill="none" xmlns="http://www.w3.org/2000/svg">
<path fill-rule="evenodd" clip-rule="evenodd" d="M0.105087 7.87513L5.78377 0.198018C5.9508 -0.0277913 6.25752 -0.0661648 6.46885 0.112308C6.58588 0.211146 6.65415 0.361776 6.65415 0.521172V4.30802C6.65415 4.59584 6.87251 4.82917 7.14188 4.82917H9.51227C9.78163 4.82917 10 5.0625 10 5.35032C10 5.46105 9.96699 5.5689 9.90576 5.65824L4.33453 13.7867C4.17537 14.0189 3.87018 14.0693 3.65286 13.8993C3.52743 13.8011 3.4533 13.6449 3.4533 13.4788V9.24058C3.4533 8.95276 3.23494 8.71943 2.96557 8.71943H0.487733C0.218365 8.71943 0 8.4861 0 8.19828C0 8.081 0.0370248 7.96714 0.105087 7.87513Z" fill="#00DBF5"/>
</svg>
