<svg width="25" height="25" viewBox="0 0 25 25" fill="none" xmlns="http://www.w3.org/2000/svg">
<path d="M12.5227 5.38843C8.27825 5.38843 4.81055 8.27927 4.81055 11.8177C4.81055 13.6678 5.7815 15.4486 7.41826 16.6511C8.63889 17.6687 8.52793 19.8426 8.50018 19.8658C8.50018 19.9814 8.52793 20.0739 8.63889 20.1664C8.72212 20.2358 8.86082 20.282 8.97179 20.282H16.0459C16.1846 20.282 16.2956 20.2358 16.3788 20.1664C16.462 20.097 16.5175 19.9814 16.5175 19.8658C16.5175 19.8426 16.3788 17.6687 17.5994 16.6511C17.6272 16.628 17.6549 16.6049 17.6827 16.5818C19.2917 15.356 20.2349 13.6215 20.2349 11.8177C20.2349 8.27927 16.7672 5.38843 12.5227 5.38843ZM16.9614 16.0499C16.9336 16.073 16.8782 16.1192 16.8782 16.1424C15.7962 17.1137 15.602 18.7094 15.5743 19.4726H9.4434C9.41566 18.7094 9.22147 17.0443 8.05632 16.0499C6.58601 14.986 5.72602 13.4365 5.72602 11.7945C5.72602 8.67242 8.74986 6.15161 12.495 6.15161C16.2401 6.15161 19.2639 8.67242 19.2639 11.7945C19.2639 13.4365 18.4317 14.986 16.9614 16.0499Z" fill="#738696"/>
<path d="M12.495 7.03076C12.2454 7.03076 12.0234 7.21578 12.0234 7.42392C12.0234 7.63206 12.2454 7.81707 12.495 7.81707C15.2969 7.81707 17.544 9.71346 17.544 12.0261C17.544 12.2343 17.766 12.4193 18.0156 12.4193C18.2653 12.4193 18.4872 12.2343 18.4872 12.0261C18.515 9.27405 15.824 7.03076 12.495 7.03076Z" fill="#738696"/>
<path d="M15.5745 20.7217H9.41588C8.77782 20.7217 8.25073 21.1611 8.25073 21.693C8.25073 22.2249 8.77782 22.6643 9.41588 22.6643H15.5468C16.2126 22.6412 16.7397 22.2249 16.7397 21.693C16.7397 21.1611 16.2126 20.7217 15.5745 20.7217ZM15.5745 21.8549H9.41588C9.30491 21.8549 9.19395 21.7855 9.19395 21.6699C9.19395 21.5542 9.27717 21.4849 9.41588 21.4849H15.5468C15.6577 21.4849 15.7687 21.5542 15.7687 21.6699C15.7687 21.7855 15.6855 21.8549 15.5745 21.8549Z" fill="#738696"/>
<path d="M14.6589 23.0571H10.3312C9.69311 23.0571 9.16602 23.4965 9.16602 24.0285C9.16602 24.5604 9.69311 24.9998 10.3312 24.9998H14.6589C15.2969 24.9998 15.824 24.5604 15.824 24.0285C15.824 23.4734 15.2969 23.0571 14.6589 23.0571ZM14.6589 24.1903H10.3312C10.2202 24.1903 10.1092 24.121 10.1092 24.0053C10.1092 23.8897 10.1925 23.8203 10.3312 23.8203H14.6589C14.7698 23.8203 14.8808 23.8897 14.8808 24.0053C14.8808 24.121 14.7698 24.1903 14.6589 24.1903Z" fill="#738696"/>
<path d="M12.495 3.46901C12.7725 3.46901 12.9667 3.284 12.9667 3.07586V0.393155C12.9667 0.185014 12.7447 0 12.495 0C12.2454 0 12.0234 0.185014 12.0234 0.393155V3.07586C12.0234 3.284 12.2454 3.46901 12.495 3.46901Z" fill="#738696"/>
<path d="M20.346 1.98895C20.1241 1.85019 19.8466 1.91957 19.7079 2.08146L17.9325 4.30162C17.766 4.48664 17.8215 4.74103 18.0434 4.85666C18.1267 4.90292 18.2099 4.92604 18.2931 4.92604C18.4596 4.92604 18.5983 4.85666 18.6815 4.74103L20.4569 2.52086C20.6234 2.35898 20.5679 2.10458 20.346 1.98895Z" fill="#738696"/>
<path d="M6.86358 4.8335C6.94681 4.8335 7.03003 4.81037 7.11326 4.76412C7.33519 4.64849 7.39067 4.39409 7.25197 4.20908L5.53199 1.96579C5.39328 1.78077 5.08812 1.73452 4.86619 1.85015C4.64425 1.96579 4.58877 2.22018 4.72748 2.40519L6.44746 4.64849C6.55843 4.78725 6.69713 4.8335 6.86358 4.8335Z" fill="#738696"/>
<path d="M3.50679 7.28494L0.704879 6.01296C0.482945 5.92046 0.177787 5.98984 0.0668205 6.17485C-0.0718878 6.35987 0.0113371 6.61426 0.261012 6.70677L3.06292 7.97874C3.14614 8.00187 3.20163 8.025 3.28485 8.025C3.4513 8.025 3.61775 7.95562 3.70098 7.81686C3.81194 7.63184 3.72872 7.37745 3.50679 7.28494Z" fill="#738696"/>
<path d="M24.9511 6.17485C24.8401 5.98984 24.5349 5.92046 24.313 6.01296L21.4834 7.28494C21.2614 7.37745 21.1782 7.63184 21.2892 7.81686C21.3724 7.95562 21.5388 8.025 21.7053 8.025C21.7885 8.025 21.8717 8.00187 21.9272 7.97874L24.7569 6.70677C24.9788 6.61426 25.062 6.35987 24.9511 6.17485Z" fill="#738696"/>
</svg>
