<svg width="13" height="12" viewBox="0 0 13 12" fill="none" xmlns="http://www.w3.org/2000/svg">
<path d="M10.1111 6.54366V10.875C10.1111 11.4963 9.62609 12 9.02778 12H1.08333C0.485017 12 0 11.4963 0 10.875V2.625C0 2.00367 0.485017 1.5 1.08333 1.5H6.68056C6.82421 1.5 6.96198 1.55926 7.06356 1.66474L7.42467 2.03974C7.76592 2.39412 7.52425 3 7.04167 3H1.44444V10.5H8.66667V6.91866C8.66667 6.76948 8.72374 6.62639 8.82531 6.5209L9.18642 6.1459C9.52765 5.79155 10.1111 6.04252 10.1111 6.54366ZM13 0.874992C13 0.391758 12.6228 0 12.1574 0H8.57639C8.22738 0 7.94444 0.293813 7.94444 0.65625V1.07543C7.94444 1.44495 8.2381 1.74162 8.59381 1.73142L10.1105 1.68675L4.49335 7.47867C4.28054 7.69812 4.27991 8.05535 4.49197 8.27557L5.03091 8.83523C5.24297 9.05545 5.587 9.05482 5.79829 8.83383L11.3757 3.00059L11.3327 4.57566C11.3229 4.94503 11.6086 5.25 11.9644 5.25H12.3681C12.7171 5.25 13 4.95619 13 4.59375V0.874992Z" fill="#04344A"/>
</svg>
