<svg width="40" height="40" viewBox="0 0 40 40" fill="none" xmlns="http://www.w3.org/2000/svg">
<circle cx="20" cy="20" r="20" fill="#0065A1"/>
<path fill-rule="evenodd" clip-rule="evenodd" d="M21.0888 13.1739V24.2492C21.0888 25.1291 20.3115 25.8496 19.3604 25.8496C18.4105 25.8496 17.6332 25.1297 17.6332 24.2492V13.1739C17.6332 12.2928 18.4105 11.5729 19.361 11.5729C20.3115 11.5729 21.0888 12.2934 21.0888 13.1739ZM14.455 16.7349V20.6874C14.455 21.5673 13.677 22.2884 12.7272 22.2884C11.7779 22.2884 11 21.5679 11 20.6874V16.7349C11 15.8544 11.7774 15.1339 12.7278 15.1339C13.6784 15.1339 14.455 15.855 14.455 16.7349ZM12.7278 24.1609C13.6783 24.1609 14.455 24.8814 14.455 25.7624V26.5118C14.455 27.3929 13.6783 28.1134 12.7278 28.1134C11.7774 28.1134 11 27.3929 11 26.5118V25.7624C11 24.8814 11.7774 24.1609 12.7278 24.1609ZM24.5452 29.2943V16.8027V13.9042V10.6016C24.5452 9.72048 25.3225 9 26.2724 9C27.3105 9 28.0002 9.78518 28.0002 10.701V16.8027V29.3984C28.0002 30.2795 27.2228 31 26.2724 31C25.3225 31 24.5452 30.2788 24.5452 29.3984V29.2943Z" fill="white"/>
</svg>
