<svg width="10" height="13" viewBox="0 0 10 13" fill="none" xmlns="http://www.w3.org/2000/svg">
<path fill-rule="evenodd" clip-rule="evenodd" d="M5.91778 2.46641V9.0109C5.91778 9.53086 5.46184 9.95661 4.90399 9.95661C4.34683 9.95661 3.89088 9.53121 3.89088 9.0109V2.46641C3.89088 1.94578 4.34683 1.52038 4.90434 1.52038C5.46184 1.52038 5.91778 1.94612 5.91778 2.46641ZM2.02657 4.57062V6.90619C2.02657 7.42611 1.57023 7.8522 1.01307 7.8522C0.456283 7.8522 0 7.42645 0 6.90619V4.57062C0 4.05031 0.455967 3.62457 1.01344 3.62457C1.57102 3.62457 2.02657 4.05066 2.02657 4.57062ZM1.01344 8.95872C1.57097 8.95872 2.02657 9.38447 2.02657 9.90508V10.3479C2.02657 10.8685 1.57097 11.2943 1.01344 11.2943C0.455963 11.2943 0 10.8685 0 10.3479V9.90508C0 9.38447 0.455963 8.95872 1.01344 8.95872ZM7.94491 11.9921V4.61071V2.89794V0.946374C7.94491 0.42574 8.40089 0 8.95805 0C9.56693 0 9.97149 0.46397 9.97149 1.00515V4.61071V12.0536C9.97149 12.5743 9.51551 13 8.95805 13C8.40089 13 7.94491 12.5739 7.94491 12.0536V11.9921Z" fill="#0065A1"/>
</svg>
