<svg width="12" height="12" viewBox="0 0 12 12" fill="none" xmlns="http://www.w3.org/2000/svg">
<path fill-rule="evenodd" clip-rule="evenodd" d="M7.59877 8.79576C10.0286 8.79576 11.9983 6.82676 11.9983 4.39788C11.9983 1.969 10.0286 0 7.59877 0C5.16898 0 3.19924 1.969 3.19924 4.39788C3.19924 5.37522 3.51817 6.27811 4.05766 7.00821C3.88085 7.02953 3.70963 7.10802 3.57395 7.2437L0.241457 10.5919C-0.0805707 10.9139 -0.080473 11.4361 0.241675 11.7582C0.563823 12.0804 1.08603 12.0805 1.40806 11.7585L4.74055 8.4103C4.87562 8.27524 4.95402 8.10495 4.97576 7.92899C5.70818 8.47353 6.61583 8.79576 7.59877 8.79576ZM7.59959 7.69621C5.77724 7.69621 4.29994 6.21947 4.29994 4.3978C4.29994 2.57614 5.77724 1.09939 7.59959 1.09939C9.42193 1.09939 10.8992 2.57614 10.8992 4.3978C10.8992 6.21947 9.42193 7.69621 7.59959 7.69621Z" fill="white"/>
</svg>
