<svg width="12" height="8" viewBox="0 0 12 8" fill="none" xmlns="http://www.w3.org/2000/svg">
<path d="M3.60073 6.28571H7.20042C8.19408 6.28571 9.00026 5.51786 9.00026 4.57143H9.60021C10.9238 4.57143 12 3.54643 12 2.28571C12 1.025 10.9238 0 9.60021 0H2.25085C2.0015 0 1.80089 0.191071 1.80089 0.428571V4.57143C1.80089 5.51786 2.60707 6.28571 3.60073 6.28571ZM9.60021 1.14286C10.262 1.14286 10.8001 1.65536 10.8001 2.28571C10.8001 2.91607 10.262 3.42857 9.60021 3.42857H9.00026V1.14286H9.60021ZM10.4945 8H0.906594C0.0141723 8 -0.237056 6.85714 0.231653 6.85714H11.1676C11.6363 6.85714 11.3888 8 10.4945 8Z" fill="#04344A"/>
</svg>
