<svg width="24" height="24" viewBox="0 0 24 24" fill="none" xmlns="http://www.w3.org/2000/svg">
<path fill-rule="evenodd" clip-rule="evenodd" d="M13.5737 6.35167C19.4506 8.71272 28.0333 23.148 10.8931 21.9268C-1.49435 21.0443 5.60632 8.8812 10.6581 6.45831C8.96485 5.38749 7.88255 2.92949 8.51292 2.2536C8.95045 1.78447 9.58095 2.05507 10.2752 2.35302C10.8112 2.58304 11.3851 2.82936 11.9376 2.76426C12.2523 2.71874 12.6855 2.59829 13.1519 2.4686C14.0104 2.22987 14.9814 1.95985 15.5334 2.06832C16.1746 2.19426 15.1328 5.07359 13.5737 6.35167ZM11.9195 11.9819C11.6248 12.0433 11.3028 12.1743 11.1265 12.4255C11.0604 12.5196 11.019 12.6264 11.0076 12.7401C10.9961 12.8539 11.0026 12.9805 11.0469 13.0877C11.0891 13.1898 11.1775 13.2652 11.2687 13.3259C11.3711 13.3939 11.4837 13.447 11.5984 13.4919C11.6946 13.5297 11.8028 13.5659 11.9195 13.6008V11.9819ZM14.0305 15.5551C14.0092 15.4543 13.9653 15.3618 13.894 15.2855C13.8174 15.2037 13.7206 15.1425 13.6205 15.0916C13.4026 14.9807 13.1644 14.9134 12.9278 14.8527V16.6418C13.3118 16.5994 13.7527 16.4634 13.9543 16.1136C14.0506 15.9465 14.0697 15.7411 14.0305 15.5551ZM14.8423 14.8954C15.0253 15.2102 15.0855 15.5865 15.0457 15.9441C14.993 16.4182 14.7354 16.8471 14.3505 17.1382C13.944 17.4456 13.4342 17.5886 12.9277 17.6286V18.1525C12.9277 18.2927 12.865 18.4283 12.7574 18.5211C12.6096 18.6487 12.3924 18.6802 12.213 18.5996C12.0359 18.52 11.9195 18.3428 11.9195 18.1525V17.5799C11.8326 17.5638 11.7464 17.5447 11.6612 17.5218C11.1878 17.3949 10.7487 17.1475 10.4279 16.7815C10.2682 16.599 10.1379 16.392 10.0478 16.1685C10.0243 16.1101 10.0033 16.0506 9.98494 15.9905L9.98386 15.9869C9.96756 15.9336 9.951 15.8794 9.9452 15.8239C9.93521 15.7287 9.95455 15.6316 10 15.5468C10.0935 15.3723 10.2905 15.2669 10.4916 15.2845C10.6895 15.3016 10.8629 15.4356 10.9253 15.6197C10.9333 15.6435 10.9403 15.6675 10.9472 15.6915C10.9569 15.7248 10.9665 15.7581 10.979 15.7906C11.0004 15.8464 11.0262 15.9005 11.0565 15.9521C11.1164 16.0537 11.1915 16.1473 11.2779 16.2286C11.456 16.3961 11.6829 16.5049 11.9195 16.5697V14.6232C11.457 14.5063 10.9795 14.3554 10.5976 14.0656C10.4119 13.9247 10.2544 13.7496 10.1513 13.5424C10.0424 13.3237 9.99733 13.0801 9.9955 12.8381C9.99362 12.5924 10.0415 12.3488 10.1465 12.125C10.2449 11.9154 10.3865 11.7272 10.5602 11.5712C10.9315 11.2376 11.4248 11.0516 11.9195 10.9833V10.4394C11.9195 10.2992 11.9823 10.1636 12.0898 10.0708C12.2377 9.94322 12.4548 9.91169 12.6343 9.99235C12.8113 10.0719 12.9278 10.2492 12.9278 10.4394V10.9803C12.9937 10.9884 13.0594 10.9981 13.1248 11.0097C13.6106 11.0955 14.0858 11.2912 14.4411 11.633C14.6094 11.7949 14.7472 11.9878 14.8441 12.1982C14.8711 12.2569 14.8948 12.3169 14.9153 12.3782C14.9344 12.4352 14.9536 12.494 14.9627 12.5536C14.9773 12.6487 14.9624 12.747 14.9207 12.834C14.8353 13.0123 14.6436 13.1258 14.442 13.1173C14.2439 13.1089 14.0644 12.983 13.9934 12.8023C13.9831 12.776 13.9753 12.7489 13.9674 12.7218C13.9593 12.6936 13.9512 12.6654 13.9402 12.6381C13.9184 12.5838 13.8903 12.532 13.8578 12.4831C13.7947 12.3881 13.713 12.3066 13.6197 12.2394C13.4176 12.0938 13.1725 12.018 12.9276 11.9755V13.8383C13.2187 13.9063 13.5099 13.9805 13.7888 14.0878C14.2102 14.25 14.6096 14.4986 14.8396 14.8907C14.804 14.8297 14.7692 14.7701 14.8409 14.8928C14.9102 15.0116 14.8785 14.9573 14.8437 14.8978L14.8423 14.8954Z" fill="#04344A"/>
</svg>
