<svg width="31" height="21" viewBox="0 0 31 21" fill="none" xmlns="http://www.w3.org/2000/svg">
<path d="M29.7083 0H4.73611C4.02273 0 3.44444 0.587617 3.44444 1.3125V1.75H1.29167C0.57829 1.75 0 2.33762 0 3.0625V17.9375C0 19.6289 1.34936 21 3.01389 21H28.4167C29.8434 21 31 19.8248 31 18.375V1.3125C31 0.587617 30.4217 0 29.7083 0ZM3.01389 18.375C2.8997 18.375 2.79019 18.3289 2.70944 18.2469C2.6287 18.1648 2.58333 18.0535 2.58333 17.9375V4.375H3.44444V17.9375C3.44444 18.0535 3.39908 18.1648 3.31834 18.2469C3.23759 18.3289 3.12808 18.375 3.01389 18.375ZM15.7153 17.5H7.53472C7.17806 17.5 6.88889 17.2062 6.88889 16.8438V16.4062C6.88889 16.0438 7.17806 15.75 7.53472 15.75H15.7153C16.0719 15.75 16.3611 16.0438 16.3611 16.4062V16.8438C16.3611 17.2062 16.0719 17.5 15.7153 17.5ZM26.9097 17.5H18.7292C18.3725 17.5 18.0833 17.2062 18.0833 16.8438V16.4062C18.0833 16.0438 18.3725 15.75 18.7292 15.75H26.9097C27.2664 15.75 27.5556 16.0438 27.5556 16.4062V16.8438C27.5556 17.2062 27.2664 17.5 26.9097 17.5ZM15.7153 12.25H7.53472C7.17806 12.25 6.88889 11.9562 6.88889 11.5938V11.1562C6.88889 10.7938 7.17806 10.5 7.53472 10.5H15.7153C16.0719 10.5 16.3611 10.7938 16.3611 11.1562V11.5938C16.3611 11.9562 16.0719 12.25 15.7153 12.25ZM26.9097 12.25H18.7292C18.3725 12.25 18.0833 11.9562 18.0833 11.5938V11.1562C18.0833 10.7938 18.3725 10.5 18.7292 10.5H26.9097C27.2664 10.5 27.5556 10.7938 27.5556 11.1562V11.5938C27.5556 11.9562 27.2664 12.25 26.9097 12.25ZM26.9097 7H7.53472C7.17806 7 6.88889 6.70616 6.88889 6.34375V4.15625C6.88889 3.79384 7.17806 3.5 7.53472 3.5H26.9097C27.2664 3.5 27.5556 3.79384 27.5556 4.15625V6.34375C27.5556 6.70616 27.2664 7 26.9097 7Z" fill="#90A7BA"/>
</svg>
