<svg width="36" height="21" viewBox="0 0 36 21" fill="none" xmlns="http://www.w3.org/2000/svg">
<path d="M12.375 5.46875C12.375 2.44841 14.8934 0 18 0C21.1066 0 23.625 2.44841 23.625 5.46875C23.625 8.48909 21.1066 10.9375 18 10.9375C14.8934 10.9375 12.375 8.48909 12.375 5.46875ZM2.7 7.875C2.7 5.45874 4.71471 3.5 7.2 3.5C9.68529 3.5 11.7 5.45874 11.7 7.875C11.7 10.2913 9.68529 12.25 7.2 12.25C4.71471 12.25 2.7 10.2913 2.7 7.875ZM24.3 7.875C24.3 5.45874 26.3147 3.5 28.8 3.5C31.2853 3.5 33.3 5.45874 33.3 7.875C33.3 10.2913 31.2853 12.25 28.8 12.25C26.3147 12.25 24.3 10.2913 24.3 7.875ZM23.0625 12.0312C25.2371 12.0312 27 13.7452 27 15.8594V19.6875C27 20.4124 26.3956 21 25.65 21H10.35C9.60441 21 9 20.4124 9 19.6875V15.8594C9 13.7452 10.7629 12.0312 12.9375 12.0312H13.9415C16.4369 13.4907 19.5625 13.491 22.0586 12.0312H23.0625ZM7.2 15.8594C7.2 15.2045 7.31706 14.5757 7.53126 13.9915C6.29769 14.0545 5.04939 13.7661 3.95314 13.125H3.15C1.4103 13.125 0 14.4961 0 16.1875V17.9375C0 18.6624 0.604406 19.25 1.35 19.25H7.2V15.8594ZM32.85 13.125H32.0469C30.9503 13.7663 29.702 14.0545 28.4687 13.9915C28.6885 14.591 28.8005 15.2229 28.8 15.8594V19.25H34.65C35.3956 19.25 36 18.6624 36 17.9375V16.1875C36 14.4961 34.5897 13.125 32.85 13.125Z" fill="#90A7BA"/>
</svg>
