<svg width="25" height="15" viewBox="0 0 25 15" fill="none" xmlns="http://www.w3.org/2000/svg">
<path d="M8.59375 3.90625C8.59375 1.74887 10.3427 0 12.5 0C14.6573 0 16.4062 1.74887 16.4062 3.90625C16.4062 6.06363 14.6573 7.8125 12.5 7.8125C10.3427 7.8125 8.59375 6.06363 8.59375 3.90625ZM1.875 5.625C1.875 3.8991 3.2741 2.5 5 2.5C6.7259 2.5 8.125 3.8991 8.125 5.625C8.125 7.3509 6.7259 8.75 5 8.75C3.2741 8.75 1.875 7.3509 1.875 5.625ZM16.875 5.625C16.875 3.8991 18.2741 2.5 20 2.5C21.7259 2.5 23.125 3.8991 23.125 5.625C23.125 7.3509 21.7259 8.75 20 8.75C18.2741 8.75 16.875 7.3509 16.875 5.625ZM16.0156 8.59375C17.5258 8.59375 18.75 9.81797 18.75 11.3281V14.0625C18.75 14.5803 18.3303 15 17.8125 15H7.1875C6.66973 15 6.25 14.5803 6.25 14.0625V11.3281C6.25 9.81797 7.47422 8.59375 8.98438 8.59375H9.68156C11.4145 9.63621 13.5851 9.63645 15.3185 8.59375H16.0156ZM5 11.3281C5 10.8604 5.08129 10.4112 5.23004 9.99391C4.3734 10.0389 3.50652 9.83293 2.74523 9.375H2.1875C0.979375 9.375 0 10.3544 0 11.5625V12.8125C0 13.3303 0.419727 13.75 0.9375 13.75H5V11.3281ZM22.8125 9.375H22.2548C21.4932 9.83309 20.6264 10.0389 19.77 9.99391C19.9225 10.4222 20.0004 10.8735 20 11.3281V13.75H24.0625C24.5803 13.75 25 13.3303 25 12.8125V11.5625C25 10.3544 24.0206 9.375 22.8125 9.375Z" fill="#00DBF5"/>
</svg>
