<svg width="22" height="21" viewBox="0 0 22 21" fill="none" xmlns="http://www.w3.org/2000/svg">
<path d="M4.125 6.5625C4.125 2.93811 7.20307 0 11 0C14.7969 0 17.875 2.93811 17.875 6.5625C17.875 10.1869 14.7969 13.125 11 13.125C7.20307 13.125 4.125 10.1869 4.125 6.5625ZM17.1875 14.4375H15.9605C12.9094 16.1894 9.08927 16.1887 6.03952 14.4375H4.8125C2.15462 14.4375 0 16.4942 0 19.0312V20.0156C0 20.5593 0.461699 21 1.03125 21H20.9688C21.5383 21 22 20.5593 22 20.0156V19.0312C22 16.4942 19.8454 14.4375 17.1875 14.4375Z" fill="white"/>
</svg>
