<svg width="20" height="32" viewBox="0 0 20 32" fill="none" xmlns="http://www.w3.org/2000/svg">
<path d="M12 18.8008V29.6021L10.6241 31.666C10.3272 32.1113 9.67288 32.1113 9.376 31.666L8 29.6021V18.8008C9.3201 19.0664 10.6799 19.0664 12 18.8008ZM10 0C14.9706 0 19 4.02944 19 9C19 13.9706 14.9706 18 10 18C5.02944 18 1 13.9706 1 9C1 4.02944 5.02944 0 10 0ZM5 8.5C5 6.01869 7.01869 4 9.5 4C9.63261 4 9.75979 3.94732 9.85355 3.85355C9.94732 3.75979 10 3.63261 10 3.5C10 3.36739 9.94732 3.24021 9.85355 3.14645C9.75979 3.05268 9.63261 3 9.5 3C6.46731 3 4 5.46731 4 8.5C4 8.63261 4.05268 8.75979 4.14645 8.85355C4.24022 8.94732 4.36739 9 4.5 9C4.63261 9 4.75979 8.94732 4.85355 8.85355C4.94732 8.75979 5 8.63261 5 8.5Z" fill="white"/>
</svg>
