<svg width="24" height="24" viewBox="0 0 24 24" fill="none" xmlns="http://www.w3.org/2000/svg">
<path fill-rule="evenodd" clip-rule="evenodd" d="M12.1333 2C14.8948 2 17.1333 4.23858 17.1333 7C17.1333 9.76142 14.8948 12 12.1333 12C9.37191 12 7.13333 9.76142 7.13333 7C7.13333 4.23858 9.37191 2 12.1333 2ZM12.1333 3.81818C10.3761 3.81818 8.95152 5.24273 8.95152 7C8.95152 8.75727 10.3761 10.1818 12.1333 10.1818C13.8906 10.1818 15.3152 8.75727 15.3152 7C15.3152 5.24273 13.8906 3.81818 12.1333 3.81818ZM6.86667 18.6429V22C6.86667 22.5523 6.4488 23 5.93333 23C5.41787 23 5 22.5523 5 22V18.6429C5 14.938 7.60507 12 12 12C16.4637 12 19 14.8969 19 18.6429V22C19 22.5523 18.5821 23 18.0667 23C17.5512 23 17.1333 22.5523 17.1333 22V18.6429C17.1333 15.9739 15.4051 14 12 14C8.65802 14 6.86667 16.0203 6.86667 18.6429Z" fill="#90A7BA"/>
</svg>
