<svg width="9" height="14" viewBox="0 0 9 14" fill="none" xmlns="http://www.w3.org/2000/svg">
<path d="M3.14697 9.28955C3.14697 8.51481 3.24105 7.89779 3.4292 7.43848C3.61735 6.97917 3.96045 6.52816 4.4585 6.08545C4.96208 5.63721 5.29688 5.27474 5.46289 4.99805C5.62891 4.71582 5.71191 4.41976 5.71191 4.10986C5.71191 3.17464 5.28027 2.70703 4.41699 2.70703C4.00749 2.70703 3.67822 2.83431 3.4292 3.08887C3.18571 3.33789 3.05843 3.68376 3.04736 4.12646H0.640137C0.651204 3.0695 0.991536 2.24219 1.66113 1.64453C2.33626 1.04688 3.25488 0.748047 4.41699 0.748047C5.59017 0.748047 6.50049 1.03304 7.14795 1.60303C7.79541 2.16748 8.11914 2.96712 8.11914 4.00195C8.11914 4.47233 8.014 4.91781 7.80371 5.33838C7.59342 5.75342 7.22542 6.21549 6.69971 6.72461L6.02734 7.36377C5.60677 7.76774 5.36605 8.24089 5.30518 8.7832L5.27197 9.28955H3.14697ZM2.90625 11.8379C2.90625 11.4671 3.03076 11.1628 3.27979 10.9248C3.53434 10.6813 3.85807 10.5596 4.25098 10.5596C4.64388 10.5596 4.96484 10.6813 5.21387 10.9248C5.46842 11.1628 5.5957 11.4671 5.5957 11.8379C5.5957 12.2031 5.47119 12.5047 5.22217 12.7427C4.97868 12.9806 4.65495 13.0996 4.25098 13.0996C3.84701 13.0996 3.52051 12.9806 3.27148 12.7427C3.02799 12.5047 2.90625 12.2031 2.90625 11.8379Z" fill="white"/>
</svg>
