<svg width="25" height="25" viewBox="0 0 25 25" fill="none" xmlns="http://www.w3.org/2000/svg">
<g clip-path="url(#clip0)">
<path d="M13.1184 11.8824C12.9275 11.6915 12.6184 11.6915 12.4275 11.8824C12.2371 12.0729 12.2371 12.382 12.4275 12.5729C12.6184 12.7633 12.9275 12.7633 13.1184 12.5729C13.3088 12.382 13.3088 12.0729 13.1184 11.8824Z" fill="#738696"/>
<path d="M19.3325 5.6677C18.3784 4.71365 16.8339 4.71361 15.8797 5.6677C14.9281 6.61931 14.9281 8.16814 15.8799 9.12053C16.8318 10.0719 18.3806 10.0723 19.3325 9.12043C20.2865 8.16643 20.2867 6.62185 19.3325 5.6677ZM18.642 8.42986C18.071 9.00085 17.1416 9.00085 16.5704 8.42996C15.9993 7.85857 15.9993 6.92918 16.5703 6.35823C17.1427 5.78582 18.0695 5.78572 18.642 6.35823C19.2144 6.93059 19.2145 7.8574 18.642 8.42986Z" fill="#738696"/>
<path d="M24.8567 0.143022C24.7608 0.0471727 24.63 -0.00478036 24.494 0.000346582C24.3836 0.00430165 21.7549 0.109966 18.6301 1.21441C16.1262 2.09849 14.0392 3.36426 12.4269 4.97656C12.0657 5.33784 11.7141 5.72094 11.3777 6.11894C9.78358 5.18056 8.50614 5.4748 7.69858 5.90698C5.83916 6.90209 4.68823 9.60404 4.68823 11.5367C4.68838 11.7341 4.80737 11.9122 4.98979 11.9877C5.05019 12.0128 5.11367 12.0249 5.17656 12.0249C5.30366 12.0249 5.42851 11.9753 5.52192 11.8819C6.50254 10.9013 7.71205 10.9626 8.10717 11.0146L8.27817 11.1856C7.94164 11.9864 7.67055 12.7826 7.47172 13.5571C7.39995 13.8374 7.42416 14.134 7.53085 14.4052C7.06074 14.6219 6.60717 14.94 6.21225 15.3349C4.95537 16.5919 4.70015 19.655 4.68989 19.7848C4.67866 19.9273 4.73032 20.0675 4.83135 20.1685C4.92329 20.2604 5.04766 20.3115 5.17656 20.3115C5.18935 20.3115 5.2022 20.3111 5.21504 20.31C5.34482 20.2998 8.4081 20.0446 9.66498 18.7877C10.0598 18.3929 10.3778 17.9394 10.5945 17.4694C10.8817 17.5823 11.1773 17.5963 11.4431 17.5281C12.2172 17.3294 13.0134 17.0584 13.8143 16.7218L13.9853 16.8928C14.0372 17.288 14.0985 18.4975 13.118 19.478C12.9784 19.6176 12.9366 19.8277 13.0121 20.0101C13.0877 20.1925 13.2657 20.3115 13.4632 20.3115C15.3958 20.3115 18.0977 19.1606 19.0928 17.3011C19.525 16.4937 19.8193 15.2162 18.8809 13.622C19.2787 13.2858 19.6618 12.9343 20.0233 12.5728C21.6356 10.9605 22.9013 8.87347 23.7854 6.36977C24.8899 3.24487 24.9955 0.616166 24.9994 0.505814C25.0043 0.370317 24.9526 0.23892 24.8567 0.143022ZM5.77993 10.4864C6.08325 9.01849 6.96425 7.40771 8.15956 6.76796C8.95834 6.34052 9.83144 6.38241 10.7598 6.89057C9.96889 7.9307 9.28134 9.05131 8.70824 10.2347C8.70097 10.2302 8.61308 10.1197 8.4498 10.0828C8.38266 10.0677 7.09072 9.78978 5.77993 10.4864ZM8.97445 18.0971C8.30307 18.7685 6.72812 19.1226 5.73266 19.2672C5.87729 18.2717 6.23144 16.6968 6.90278 16.0255C7.27875 15.6495 7.71469 15.3644 8.15287 15.2039L9.79604 16.847C9.63549 17.2852 9.35048 17.7212 8.97445 18.0971ZM11.2005 16.5821C11.0592 16.6183 10.8955 16.5652 10.7739 16.4437C10.1422 15.812 9.89506 15.5649 9.81752 15.4874C9.67533 15.3452 9.32665 14.9966 8.55649 14.2263C8.43471 14.1043 8.38158 13.9407 8.41767 13.7996C8.57406 13.1906 8.7786 12.5657 9.02734 11.9347L13.0652 15.9726C12.4342 16.2214 11.8094 16.4259 11.2005 16.5821ZM18.232 16.8404C17.5922 18.0356 15.9815 18.9167 14.5136 19.2199C14.9816 18.3392 15.0848 17.2181 14.9138 16.5383C14.8741 16.3803 14.7711 16.301 14.7653 16.2916C15.9486 15.7185 17.0691 15.031 18.1093 14.2401C18.6175 15.1685 18.6593 16.0417 18.232 16.8404ZM19.3328 11.8823C18.8928 12.3222 18.4191 12.7473 17.9246 13.1456C16.7361 14.1026 15.4279 14.9133 14.0322 15.5586L9.44135 10.9679C10.0867 9.57206 10.8973 8.26386 11.8542 7.07543C12.2529 6.58066 12.6779 6.10683 13.1177 5.66708C14.5642 4.2205 16.4311 3.06924 18.668 2.24053L22.7594 6.33193C21.9308 8.56879 20.7795 10.4357 19.3328 11.8823ZM23.1107 5.30209L19.6978 1.88921C21.5572 1.31167 23.1749 1.09541 23.9823 1.01768C23.9045 1.82525 23.6882 3.44287 23.1107 5.30209Z" fill="#738696"/>
<path d="M11.7371 20.1683C11.5463 19.9777 11.2371 19.9778 11.0465 20.1684L9.66564 21.5498C9.47502 21.7405 9.47507 22.0497 9.66574 22.2403C9.85651 22.4309 10.1657 22.4309 10.3563 22.2402L11.7372 20.8589C11.9278 20.6682 11.9277 20.359 11.7371 20.1683Z" fill="#738696"/>
<path d="M4.83165 13.2632C4.64103 13.0724 4.3319 13.0724 4.14112 13.2631L2.75978 14.6439C2.56906 14.8346 2.56901 15.1437 2.75963 15.3345C2.95021 15.5251 3.25934 15.5253 3.45016 15.3346L4.83151 13.9537C5.02223 13.7631 5.02228 13.4539 4.83165 13.2632Z" fill="#738696"/>
<path d="M8.28425 20.8593C8.09367 20.6686 7.78445 20.6686 7.59372 20.8593L4.28611 24.1664C4.09539 24.3571 4.09539 24.6663 4.28607 24.8569C4.47664 25.0476 4.78587 25.0477 4.97659 24.857L8.2842 21.5499C8.47492 21.3592 8.47492 21.05 8.28425 20.8593Z" fill="#738696"/>
<path d="M4.378 20.8593C4.18738 20.6686 3.87815 20.6686 3.68748 20.8593L0.379864 24.1664C0.189142 24.3571 0.189142 24.6663 0.379815 24.8569C0.570391 25.0476 0.879619 25.0477 1.07034 24.857L4.37795 21.5499C4.56868 21.3592 4.56868 21.05 4.378 20.8593Z" fill="#738696"/>
<path d="M4.14065 16.7157C3.95002 16.5251 3.6408 16.5251 3.45012 16.7158L0.142999 20.0234C-0.0476745 20.2141 -0.0476745 20.5232 0.143048 20.7139C0.333721 20.9046 0.6429 20.9046 0.833574 20.7139L4.1407 17.4063C4.33137 17.2156 4.33137 16.9064 4.14065 16.7157Z" fill="#738696"/>
<path d="M15.1895 9.81049C14.9988 9.61981 14.6897 9.61981 14.499 9.81049L13.8085 10.5009C13.6179 10.6916 13.6179 11.0008 13.8085 11.1915C13.9993 11.3822 14.3084 11.3822 14.4991 11.1915L15.1895 10.5011C15.3802 10.3104 15.3802 10.0012 15.1895 9.81049Z" fill="#738696"/>
</g>
<defs>
<clipPath id="clip0">
<rect width="25" height="25" fill="white"/>
</clipPath>
</defs>
</svg>
