<svg width="24" height="24" viewBox="0 0 24 24" fill="none" xmlns="http://www.w3.org/2000/svg">
<path fill-rule="evenodd" clip-rule="evenodd" d="M2.56568 13.7664C2.55938 13.6851 2.60173 13.6084 2.67497 13.5718L22.2055 3.64604C22.2744 3.61021 22.3594 3.61873 22.4217 3.66708C22.4828 3.71578 22.5106 3.79552 22.4922 3.87186L18.8654 18.7321C18.8521 18.7859 18.8173 18.831 18.7695 18.8586C18.7389 18.8758 18.704 18.8851 18.6696 18.8851C18.65 18.8851 18.6304 18.882 18.6113 18.8765L2.70551 13.9407C2.62798 13.9159 2.57277 13.8469 2.56568 13.7664Z" stroke="#04344A" stroke-width="2"/>
<path d="M11.0823 16.4736L11.0851 22.1829C11.0851 22.2749 11.0617 22.3553 11.151 22.3814C11.1696 22.3862 11.1467 22.3895 11.1662 22.3895C11.2361 22.3895 11.2813 22.3537 11.3205 22.2935L14.6098 17.6621" stroke="#04344A" stroke-width="2"/>
<path d="M18.2366 8.54199L11.0823 16.4737" stroke="#04344A" stroke-linecap="round"/>
</svg>
