<svg width="25" height="25" viewBox="0 0 25 25" fill="none" xmlns="http://www.w3.org/2000/svg">
<path fill-rule="evenodd" clip-rule="evenodd" d="M20.087 7.33954C20.9537 7.33954 21.6627 8.03813 21.6627 8.89274V12.4761C21.6627 13.3334 20.9854 14.0285 20.1501 14.0285H13.8049C13.7834 13.5818 13.597 13.1805 13.3013 12.8902C13.2965 12.8849 13.2906 12.8803 13.2847 12.8757L13.2847 12.8757L13.2847 12.8757C13.2802 12.8722 13.2758 12.8688 13.2718 12.865C13.2064 12.8033 13.1387 12.7451 13.0642 12.695C13.0487 12.6847 13.0323 12.6762 13.016 12.6677L13.016 12.6677C13.0035 12.6613 12.991 12.6549 12.9791 12.6477L12.9559 12.6339C12.9025 12.6023 12.8494 12.5708 12.7919 12.5464C12.7541 12.5302 12.715 12.519 12.6758 12.5078C12.6604 12.5034 12.645 12.499 12.6297 12.4943C12.6131 12.4893 12.5969 12.4837 12.5806 12.4781C12.5505 12.4678 12.5205 12.4574 12.489 12.4509C12.3835 12.4291 12.2746 12.4171 12.1627 12.4171C12.0511 12.4171 11.9419 12.4288 11.836 12.4509C11.804 12.4575 11.7738 12.468 11.7436 12.4784L11.7435 12.4784C11.7277 12.4839 11.7118 12.4894 11.6957 12.4943C11.6798 12.4992 11.6639 12.5037 11.6479 12.5083L11.6479 12.5083C11.609 12.5193 11.5702 12.5303 11.5335 12.546C11.4761 12.5702 11.423 12.6017 11.3699 12.6332L11.3455 12.6477C11.3344 12.6542 11.3229 12.6602 11.3113 12.6661L11.3113 12.6661C11.2942 12.6749 11.277 12.6837 11.2612 12.6946C11.1867 12.7451 11.1186 12.8033 11.0532 12.865C11.0509 12.8671 11.0486 12.8691 11.0462 12.8711C11.044 12.8729 11.0418 12.8746 11.0395 12.8764C11.0342 12.8807 11.029 12.8849 11.0241 12.8894C10.7288 13.1794 10.542 13.5818 10.5204 14.0278H4.17525C3.33994 14.0278 2.66269 13.3323 2.66269 12.4753V8.89196C2.66269 8.03813 3.3717 7.33954 4.2384 7.33954H7.86854C8.08824 5.93228 9.27559 4.85257 10.7076 4.85257H13.617C15.0487 4.85257 16.2371 5.93228 16.4561 7.33954H20.087ZM12.1634 15.619C12.6773 15.619 13.0948 15.1909 13.0948 14.6631V14.2296C13.0948 13.7017 12.6773 13.2737 12.1634 13.2737C11.6488 13.2737 11.2317 13.7017 11.2317 14.2296V14.6631C11.2317 15.1905 11.6488 15.619 12.1634 15.619ZM20.1505 15.1921L13.7335 15.1917C13.5274 15.8852 12.9054 16.3948 12.1634 16.3948C11.4212 16.3948 10.7991 15.8856 10.5927 15.1917H4.176C3.77102 15.1917 3.38834 15.095 3.04499 14.9274V19.3002C3.04499 20.154 3.72564 20.8526 4.55755 20.8526H19.7686C20.6005 20.8526 21.2811 20.154 21.2811 19.3002V14.9278C20.9378 15.0954 20.5551 15.1921 20.1505 15.1921ZM15.0002 7.33954H9.32551C9.51836 6.74147 10.0617 6.30563 10.7084 6.30563H13.6178C14.264 6.30563 14.8074 6.74147 15.0002 7.33954Z" fill="#04344A"/>
</svg>
