<svg width="35" height="35" viewBox="0 0 35 35" fill="none" xmlns="http://www.w3.org/2000/svg">
<g clip-path="url(#clip0)">
<path d="M27.461 12.4484C27.4624 11.8818 27.0029 11.4223 26.4349 11.4223C26.3546 11.4223 26.2771 11.4294 26.2052 11.4491C25.1523 11.6887 24.2108 12.2201 23.4737 12.9558C22.4547 13.9748 21.8247 15.3828 21.8247 16.9374L21.8261 18.3483L12.3434 8.86561C11.2469 7.76908 9.45269 7.76908 8.35756 8.86561C7.26102 9.96215 7.26102 11.7564 8.35756 12.8515L12.7423 17.2362C11.9319 17.1531 11.0933 17.411 10.4717 18.0311C10.0404 18.4624 9.7839 19.0022 9.69229 19.5618L7.88399 26.3383C7.63593 27.2756 7.87553 28.3143 8.60844 29.0486L11.8868 32.327C15.4512 35.8914 21.2271 35.8914 24.7915 32.327C26.5181 30.6004 27.4004 28.3552 27.4525 26.0945L27.4624 26.1029V25.8817C27.4624 25.8774 27.4624 25.8732 27.4624 25.8718L27.461 12.4484ZM26.0417 26.0606C25.9938 28.0564 25.1946 29.9281 23.7922 31.3291C20.7831 34.3382 15.8896 34.3382 12.8818 31.3291L9.6035 28.0508C9.25255 27.6998 9.12147 27.1952 9.25114 26.7005L11.0806 19.7915C11.1144 19.5857 11.2088 19.2855 11.4654 19.0276C11.8642 18.6287 12.3448 18.6118 12.5971 18.6372L14.5661 18.8359C14.8621 18.8655 15.1454 18.7062 15.2736 18.437C15.4019 18.1678 15.3455 17.8479 15.1355 17.6365L9.35262 11.8536C8.80294 11.3039 8.80294 10.4089 9.35262 9.86067C9.90229 9.31099 10.7973 9.31099 11.3456 9.86067L21.3088 19.8239C21.7331 20.2482 22.3546 20.337 22.8705 20.1058C23.0917 20.0057 23.2341 19.7859 23.2341 19.5434V16.9388C23.2341 15.8113 23.6738 14.7514 24.4702 13.9537C24.9198 13.504 25.4582 13.1644 26.0501 12.9544L26.0417 26.0606Z" fill="white"/>
<path d="M24.6472 3.54753H17.4789L20.03 0.996466L19.0335 0L14.7812 4.25225L19.0279 8.50027L20.0243 7.5038L17.4789 4.95696H24.6472V3.54753Z" fill="white"/>
</g>
<defs>
<clipPath id="clip0">
<rect width="35" height="35" fill="white"/>
</clipPath>
</defs>
</svg>
