<svg width="10" height="12" viewBox="0 0 10 12" fill="none" xmlns="http://www.w3.org/2000/svg">
<path d="M2.81626 1.6875C2.81626 0.755508 3.57278 0 4.50602 0C5.43926 0 6.19578 0.755508 6.19578 1.6875C6.19578 2.61947 5.43926 3.375 4.50602 3.375C3.57278 3.375 2.81626 2.61947 2.81626 1.6875ZM8.79207 1.71968C8.4988 1.42678 8.02327 1.42678 7.73001 1.71968L5.69695 3.75H3.31507L1.28203 1.71968C0.988761 1.42678 0.513235 1.42678 0.219968 1.71968C-0.0733226 2.01258 -0.0733226 2.48745 0.219968 2.78034L2.44076 4.99814V11.25C2.44076 11.6642 2.777 12 3.19176 12H3.56726C3.98203 12 4.31827 11.6642 4.31827 11.25V8.625H4.69377V11.25C4.69377 11.6642 5.03001 12 5.44477 12H5.82028C6.23504 12 6.57128 11.6642 6.57128 11.25V4.99814L8.79207 2.78032C9.08536 2.48742 9.08536 2.01258 8.79207 1.71968Z" fill="#04344A"/>
</svg>
