<svg width="12" height="11" viewBox="0 0 12 11" fill="none" xmlns="http://www.w3.org/2000/svg">
<path d="M7.5 6H12V9.375C12 9.99633 11.4963 10.5 10.875 10.5H1.125C0.503672 10.5 0 9.99633 0 9.375V6H4.5V6.46875C4.5 6.62407 4.62593 6.75 4.78125 6.75H7.21875C7.37407 6.75 7.5 6.62407 7.5 6.46875V6ZM12 3.375V5.25H0V3.375C0 2.75367 0.503672 2.25 1.125 2.25H3V1.125C3 0.503672 3.50367 0 4.125 0H7.875C8.49633 0 9 0.503672 9 1.125V2.25H10.875C11.4963 2.25 12 2.75367 12 3.375ZM7.5 1.5H4.5V2.25H7.5V1.5Z" fill="#04344A"/>
</svg>
