<svg width="33" height="32" viewBox="0 0 33 32" fill="none" xmlns="http://www.w3.org/2000/svg">
<path d="M33 18.9062C33 18.0799 32.6714 17.3099 32.1049 16.742C32.747 16.0394 33.0742 15.0974 32.9849 14.1171C32.824 12.3695 31.2496 11 29.3989 11H20.9055C21.3263 9.72256 22 7.38098 22 5.49998C22 2.5176 19.4659 0 17.875 0C16.4477 0 15.4261 0.804375 15.3835 0.837375C15.2198 0.968021 15.125 1.16602 15.125 1.37498V6.03758L11.1636 14.6162L11 14.7001V14.4374C11 14.0579 10.6919 13.7499 10.3124 13.7499H3.43748C1.5414 13.75 0 15.2914 0 17.1875V28.1875C0 30.0836 1.5414 31.625 3.43748 31.625H7.56248C9.04883 31.625 10.3193 30.6762 10.7978 29.3521C11.9419 29.9406 13.4819 30.25 14.4375 30.25H27.0586C28.556 30.25 29.8664 29.2407 30.1744 27.8492C30.3325 27.1315 30.2404 26.4096 29.9269 25.7826C30.9416 25.2725 31.625 24.2234 31.625 23.0312C31.625 22.5445 31.5136 22.0784 31.3033 21.6576C32.318 21.1461 33 20.0984 33 18.9062ZM30.1001 20.603C29.8348 20.6346 29.6106 20.8147 29.5254 21.0691C29.4415 21.3235 29.5117 21.6026 29.7069 21.7868C30.0562 22.1155 30.25 22.5582 30.25 23.0312C30.25 23.8988 29.5942 24.6276 28.7266 24.728C28.4612 24.7596 28.237 24.9397 28.1518 25.1941C28.068 25.4485 28.1381 25.7276 28.3333 25.9118C28.7857 26.3381 28.9672 26.9362 28.8311 27.5522C28.662 28.3195 27.9167 28.875 27.0587 28.875H14.4375C13.321 28.875 11.4482 28.3511 10.7992 27.7007C10.6026 27.5055 10.3056 27.4477 10.0499 27.5522C9.79275 27.6581 9.62498 27.9097 9.62498 28.1875C9.62498 29.3246 8.69963 30.25 7.56248 30.25H3.43748C2.30033 30.25 1.37498 29.3246 1.37498 28.1875V17.1875C1.37498 16.0503 2.30033 15.125 3.43748 15.125H9.62498V15.8125C9.62498 16.0504 9.74873 16.2717 9.95221 16.3982C10.153 16.5192 10.406 16.5316 10.6205 16.4271L11.9954 15.7396C12.1343 15.6708 12.2457 15.5553 12.3117 15.4137L16.4367 6.47618C16.478 6.38544 16.4999 6.28643 16.4999 6.18743V1.74758C16.786 1.58948 17.2824 1.37498 17.875 1.37498C18.6285 1.37498 20.625 3.24773 20.625 5.49998C20.625 7.92 19.3078 11.4083 19.2954 11.4427C19.2157 11.6531 19.2431 11.891 19.371 12.078C19.5002 12.2636 19.712 12.375 19.9375 12.375H29.3989C30.5456 12.375 31.5191 13.1959 31.6154 14.2436C31.6882 15.0274 31.3115 15.7726 30.6364 16.1893C30.426 16.3185 30.3009 16.5523 30.3105 16.8011C30.3201 17.05 30.4631 17.2727 30.6831 17.3869C31.2647 17.6825 31.625 18.2655 31.625 18.9062C31.625 19.7738 30.9691 20.5026 30.1001 20.603Z" fill="#5BFFB0"/>
<path d="M10.3125 15.125C9.93302 15.125 9.625 15.433 9.625 15.8125V28.1875C9.625 28.567 9.93302 28.875 10.3125 28.875C10.692 28.875 11 28.567 11 28.1875V15.8125C11 15.433 10.692 15.125 10.3125 15.125Z" fill="#5BFFB0"/>
</svg>
